<svg width="513" height="213" viewBox="0 0 513 213" fill="none" xmlns="http://www.w3.org/2000/svg">
<rect width="513" height="213" fill="#242629"/>
<path opacity="0.2" d="M103.213 106.578C103.213 103.95 103.757 101.612 104.844 99.5643C105.956 97.4917 107.523 95.8866 109.545 94.7492C111.567 93.5865 113.892 93.0052 116.521 93.0052C119.858 93.0052 122.663 93.9025 124.938 95.6971C127.213 97.4664 128.679 99.8802 129.336 102.939H121.336C120.856 101.928 120.186 101.157 119.327 100.626C118.493 100.095 117.52 99.8297 116.407 99.8297C114.689 99.8297 113.311 100.449 112.275 101.687C111.264 102.901 110.758 104.531 110.758 106.578C110.758 108.651 111.264 110.307 112.275 111.545C113.311 112.758 114.689 113.365 116.407 113.365C117.52 113.365 118.493 113.1 119.327 112.569C120.186 112.038 120.856 111.267 121.336 110.256H129.336C128.679 113.314 127.213 115.741 124.938 117.536C122.663 119.305 119.858 120.19 116.521 120.19C113.892 120.19 111.567 119.621 109.545 118.483C107.523 117.321 105.956 115.716 104.844 113.668C103.757 111.596 103.213 109.232 103.213 106.578ZM142.751 120.265C140.627 120.265 138.719 119.823 137.026 118.938C135.357 118.054 134.043 116.79 133.082 115.147C132.122 113.504 131.642 111.57 131.642 109.346C131.642 107.147 132.122 105.226 133.082 103.583C134.068 101.94 135.395 100.676 137.063 99.7918C138.757 98.9071 140.665 98.4648 142.788 98.4648C144.912 98.4648 146.807 98.9071 148.476 99.7918C150.169 100.676 151.496 101.94 152.457 103.583C153.442 105.226 153.935 107.147 153.935 109.346C153.935 111.545 153.442 113.479 152.457 115.147C151.496 116.79 150.169 118.054 148.476 118.938C146.782 119.823 144.874 120.265 142.751 120.265ZM142.751 113.82C143.787 113.82 144.646 113.441 145.329 112.683C146.036 111.899 146.39 110.787 146.39 109.346C146.39 107.905 146.036 106.806 145.329 106.048C144.646 105.289 143.8 104.91 142.788 104.91C141.777 104.91 140.931 105.289 140.248 106.048C139.566 106.806 139.225 107.905 139.225 109.346C139.225 110.812 139.553 111.924 140.21 112.683C140.867 113.441 141.714 113.82 142.751 113.82ZM184.75 98.5406C187.429 98.5406 189.527 99.3494 191.043 100.967C192.585 102.585 193.356 104.796 193.356 107.602V120H185.925V108.588C185.925 107.45 185.609 106.566 184.977 105.934C184.345 105.302 183.486 104.986 182.399 104.986C181.312 104.986 180.453 105.302 179.821 105.934C179.189 106.566 178.873 107.45 178.873 108.588V120H171.442V108.588C171.442 107.45 171.126 106.566 170.494 105.934C169.887 105.302 169.041 104.986 167.954 104.986C166.842 104.986 165.969 105.302 165.338 105.934C164.706 106.566 164.39 107.45 164.39 108.588V120H156.959V98.7302H164.39V101.536C165.047 100.626 165.894 99.9055 166.93 99.3747C167.992 98.8186 169.205 98.5406 170.57 98.5406C172.137 98.5406 173.527 98.8818 174.74 99.5643C175.979 100.247 176.952 101.207 177.66 102.446C178.418 101.283 179.416 100.348 180.655 99.6401C181.893 98.9071 183.258 98.5406 184.75 98.5406ZM201.181 96.7586C199.867 96.7586 198.805 96.4048 197.996 95.6971C197.213 94.964 196.821 94.0541 196.821 92.9672C196.821 91.8551 197.213 90.9325 197.996 90.1995C198.805 89.4665 199.867 89.1 201.181 89.1C202.47 89.1 203.506 89.4665 204.29 90.1995C205.099 90.9325 205.503 91.8551 205.503 92.9672C205.503 94.0541 205.099 94.964 204.29 95.6971C203.506 96.4048 202.47 96.7586 201.181 96.7586ZM204.859 98.7302V120H197.427V98.7302H204.859ZM223.005 98.5406C225.457 98.5406 227.403 99.3621 228.844 101.005C230.284 102.623 231.005 104.822 231.005 107.602V120H223.574V108.588C223.574 107.375 223.258 106.427 222.626 105.744C221.994 105.037 221.147 104.683 220.086 104.683C218.973 104.683 218.101 105.037 217.47 105.744C216.838 106.427 216.522 107.375 216.522 108.588V120H209.09V98.7302H216.522V101.763C217.179 100.803 218.063 100.032 219.176 99.4505C220.288 98.8439 221.564 98.5406 223.005 98.5406ZM242.931 98.4648C244.371 98.4648 245.623 98.7555 246.684 99.3368C247.771 99.9182 248.605 100.702 249.186 101.687V98.7302H256.618V119.773C256.618 121.769 256.238 123.564 255.48 125.156C254.722 126.774 253.534 128.063 251.916 129.024C250.324 129.984 248.302 130.464 245.85 130.464C242.564 130.464 239.935 129.693 237.964 128.152C235.992 126.61 234.868 124.512 234.59 121.858H241.907C242.059 122.54 242.438 123.071 243.044 123.45C243.651 123.829 244.435 124.019 245.395 124.019C247.923 124.019 249.186 122.603 249.186 119.773V117.043C248.605 118.028 247.771 118.812 246.684 119.393C245.623 119.975 244.371 120.265 242.931 120.265C241.237 120.265 239.695 119.823 238.305 118.938C236.94 118.054 235.853 116.79 235.044 115.147C234.261 113.479 233.869 111.545 233.869 109.346C233.869 107.147 234.261 105.226 235.044 103.583C235.853 101.94 236.94 100.676 238.305 99.7918C239.695 98.9071 241.237 98.4648 242.931 98.4648ZM249.186 109.346C249.186 107.981 248.807 106.907 248.049 106.123C247.316 105.34 246.406 104.948 245.319 104.948C244.207 104.948 243.284 105.34 242.551 106.123C241.818 106.882 241.452 107.956 241.452 109.346C241.452 110.711 241.818 111.798 242.551 112.607C243.284 113.39 244.207 113.782 245.319 113.782C246.406 113.782 247.316 113.39 248.049 112.607C248.807 111.823 249.186 110.736 249.186 109.346ZM278.194 120.265C275.085 120.265 272.532 119.532 270.536 118.066C268.539 116.575 267.465 114.452 267.313 111.697H275.237C275.313 112.632 275.591 113.314 276.071 113.744C276.551 114.174 277.171 114.389 277.929 114.389C278.611 114.389 279.167 114.224 279.597 113.896C280.052 113.542 280.28 113.062 280.28 112.455C280.28 111.672 279.913 111.065 279.18 110.635C278.447 110.206 277.259 109.725 275.616 109.194C273.872 108.613 272.457 108.057 271.37 107.526C270.308 106.97 269.373 106.174 268.564 105.138C267.781 104.076 267.389 102.699 267.389 101.005C267.389 99.2863 267.818 97.8202 268.678 96.607C269.537 95.3685 270.725 94.4332 272.242 93.8013C273.758 93.1694 275.477 92.8535 277.398 92.8535C280.507 92.8535 282.984 93.5865 284.829 95.0525C286.7 96.4932 287.698 98.528 287.824 101.157H279.749C279.723 100.348 279.471 99.7412 278.99 99.3368C278.536 98.9324 277.942 98.7302 277.209 98.7302C276.652 98.7302 276.197 98.8945 275.844 99.2231C275.49 99.5517 275.313 100.019 275.313 100.626C275.313 101.131 275.502 101.574 275.882 101.953C276.286 102.307 276.779 102.623 277.36 102.901C277.942 103.153 278.801 103.482 279.938 103.887C281.632 104.468 283.022 105.049 284.109 105.631C285.221 106.187 286.169 106.983 286.952 108.019C287.761 109.03 288.166 110.319 288.166 111.886C288.166 113.479 287.761 114.907 286.952 116.171C286.169 117.434 285.019 118.433 283.502 119.166C282.011 119.899 280.242 120.265 278.194 120.265ZM301.516 120.265C299.393 120.265 297.484 119.823 295.791 118.938C294.123 118.054 292.808 116.79 291.848 115.147C290.887 113.504 290.407 111.57 290.407 109.346C290.407 107.147 290.887 105.226 291.848 103.583C292.834 101.94 294.161 100.676 295.829 99.7918C297.522 98.9071 299.431 98.4648 301.554 98.4648C303.677 98.4648 305.573 98.9071 307.241 99.7918C308.934 100.676 310.261 101.94 311.222 103.583C312.208 105.226 312.701 107.147 312.701 109.346C312.701 111.545 312.208 113.479 311.222 115.147C310.261 116.79 308.934 118.054 307.241 118.938C305.547 119.823 303.639 120.265 301.516 120.265ZM301.516 113.82C302.552 113.82 303.412 113.441 304.094 112.683C304.802 111.899 305.156 110.787 305.156 109.346C305.156 107.905 304.802 106.806 304.094 106.048C303.412 105.289 302.565 104.91 301.554 104.91C300.543 104.91 299.696 105.289 299.014 106.048C298.331 106.806 297.99 107.905 297.99 109.346C297.99 110.812 298.318 111.924 298.976 112.683C299.633 113.441 300.48 113.82 301.516 113.82ZM325.62 120.265C323.496 120.265 321.588 119.823 319.894 118.938C318.226 118.054 316.912 116.79 315.951 115.147C314.991 113.504 314.511 111.57 314.511 109.346C314.511 107.147 314.991 105.226 315.951 103.583C316.937 101.94 318.264 100.676 319.932 99.7918C321.626 98.9071 323.534 98.4648 325.657 98.4648C327.781 98.4648 329.676 98.9071 331.345 99.7918C333.038 100.676 334.365 101.94 335.326 103.583C336.311 105.226 336.804 107.147 336.804 109.346C336.804 111.545 336.311 113.479 335.326 115.147C334.365 116.79 333.038 118.054 331.345 118.938C329.651 119.823 327.743 120.265 325.62 120.265ZM325.62 113.82C326.656 113.82 327.515 113.441 328.198 112.683C328.905 111.899 329.259 110.787 329.259 109.346C329.259 107.905 328.905 106.806 328.198 106.048C327.515 105.289 326.668 104.91 325.657 104.91C324.646 104.91 323.8 105.289 323.117 106.048C322.435 106.806 322.093 107.905 322.093 109.346C322.093 110.812 322.422 111.924 323.079 112.683C323.736 113.441 324.583 113.82 325.62 113.82ZM353.742 98.5406C356.194 98.5406 358.14 99.3621 359.581 101.005C361.022 102.623 361.742 104.822 361.742 107.602V120H354.311V108.588C354.311 107.375 353.995 106.427 353.363 105.744C352.731 105.037 351.884 104.683 350.823 104.683C349.71 104.683 348.838 105.037 348.207 105.744C347.575 106.427 347.259 107.375 347.259 108.588V120H339.828V98.7302H347.259V101.763C347.916 100.803 348.801 100.032 349.913 99.4505C351.025 98.8439 352.301 98.5406 353.742 98.5406ZM369.421 120.303C368.107 120.303 367.045 119.949 366.236 119.242C365.453 118.509 365.061 117.586 365.061 116.474C365.061 115.362 365.453 114.439 366.236 113.706C367.045 112.973 368.107 112.607 369.421 112.607C370.71 112.607 371.747 112.973 372.53 113.706C373.339 114.439 373.743 115.362 373.743 116.474C373.743 117.561 373.339 118.471 372.53 119.204C371.747 119.937 370.71 120.303 369.421 120.303ZM380.825 120.303C379.511 120.303 378.449 119.949 377.64 119.242C376.857 118.509 376.465 117.586 376.465 116.474C376.465 115.362 376.857 114.439 377.64 113.706C378.449 112.973 379.511 112.607 380.825 112.607C382.114 112.607 383.151 112.973 383.934 113.706C384.743 114.439 385.147 115.362 385.147 116.474C385.147 117.561 384.743 118.471 383.934 119.204C383.151 119.937 382.114 120.303 380.825 120.303ZM392.229 120.303C390.915 120.303 389.853 119.949 389.044 119.242C388.261 118.509 387.869 117.586 387.869 116.474C387.869 115.362 388.261 114.439 389.044 113.706C389.853 112.973 390.915 112.607 392.229 112.607C393.518 112.607 394.554 112.973 395.338 113.706C396.147 114.439 396.551 115.362 396.551 116.474C396.551 117.561 396.147 118.471 395.338 119.204C394.554 119.937 393.518 120.303 392.229 120.303ZM403.633 120.303C402.318 120.303 401.257 119.949 400.448 119.242C399.664 118.509 399.273 117.586 399.273 116.474C399.273 115.362 399.664 114.439 400.448 113.706C401.257 112.973 402.318 112.607 403.633 112.607C404.922 112.607 405.958 112.973 406.742 113.706C407.551 114.439 407.955 115.362 407.955 116.474C407.955 117.561 407.551 118.471 406.742 119.204C405.958 119.937 404.922 120.303 403.633 120.303Z" fill="white"/>
</svg>
