<svg width="255" height="213" viewBox="0 0 255 213" fill="none" xmlns="http://www.w3.org/2000/svg">
<rect width="255" height="213" fill="#242629"/>
<path opacity="0.2" d="M53.583 106.551C53.583 105.288 53.8441 104.164 54.3664 103.18C54.9008 102.184 55.6538 101.413 56.6255 100.866C57.5971 100.308 58.7145 100.028 59.9777 100.028C61.5809 100.028 62.9291 100.46 64.0222 101.322C65.1153 102.172 65.8197 103.332 66.1355 104.802H62.2914C62.0607 104.316 61.7388 103.945 61.3258 103.69C60.925 103.435 60.4574 103.308 59.923 103.308C59.0971 103.308 58.4352 103.605 57.9372 104.2C57.4514 104.783 57.2085 105.567 57.2085 106.551C57.2085 107.547 57.4514 108.342 57.9372 108.937C58.4352 109.52 59.0971 109.812 59.923 109.812C60.4574 109.812 60.925 109.684 61.3258 109.429C61.7388 109.174 62.0607 108.804 62.2914 108.318H66.1355C65.8197 109.787 65.1153 110.953 64.0222 111.816C62.9291 112.666 61.5809 113.091 59.9777 113.091C58.7145 113.091 57.5971 112.818 56.6255 112.271C55.6538 111.713 54.9008 110.941 54.3664 109.958C53.8441 108.962 53.583 107.826 53.583 106.551ZM72.5814 113.128C71.5612 113.128 70.6442 112.915 69.8304 112.49C69.0288 112.065 68.3973 111.458 67.9357 110.668C67.4742 109.879 67.2434 108.949 67.2434 107.881C67.2434 106.824 67.4742 105.901 67.9357 105.111C68.4094 104.322 69.0471 103.715 69.8487 103.29C70.6624 102.864 71.5794 102.652 72.5997 102.652C73.6199 102.652 74.5308 102.864 75.3324 103.29C76.1462 103.715 76.7838 104.322 77.2454 105.111C77.719 105.901 77.9559 106.824 77.9559 107.881C77.9559 108.937 77.719 109.866 77.2454 110.668C76.7838 111.458 76.1462 112.065 75.3324 112.49C74.5187 112.915 73.6017 113.128 72.5814 113.128ZM72.5814 110.03C73.0794 110.03 73.4924 109.848 73.8203 109.484C74.1604 109.107 74.3304 108.573 74.3304 107.881C74.3304 107.188 74.1604 106.66 73.8203 106.296C73.4924 105.931 73.0855 105.749 72.5997 105.749C72.1138 105.749 71.707 105.931 71.379 106.296C71.0511 106.66 70.8871 107.188 70.8871 107.881C70.8871 108.585 71.045 109.119 71.3608 109.484C71.6766 109.848 72.0835 110.03 72.5814 110.03ZM92.7628 102.688C94.0502 102.688 95.0583 103.077 95.7871 103.854C96.528 104.632 96.8984 105.694 96.8984 107.043V113H93.3276V107.516C93.3276 106.97 93.1758 106.545 92.8721 106.241C92.5685 105.937 92.1555 105.785 91.6333 105.785C91.111 105.785 90.698 105.937 90.3944 106.241C90.0908 106.545 89.9389 106.97 89.9389 107.516V113H86.3681V107.516C86.3681 106.97 86.2163 106.545 85.9127 106.241C85.6212 105.937 85.2143 105.785 84.692 105.785C84.1576 105.785 83.7386 105.937 83.4349 106.241C83.1313 106.545 82.9795 106.97 82.9795 107.516V113H79.4087V102.779H82.9795V104.128C83.2953 103.69 83.7022 103.344 84.2001 103.089C84.7102 102.822 85.2932 102.688 85.9491 102.688C86.7021 102.688 87.3701 102.852 87.9531 103.18C88.5483 103.508 89.0159 103.97 89.356 104.565C89.7203 104.006 90.2001 103.557 90.7952 103.217C91.3903 102.864 92.0462 102.688 92.7628 102.688ZM100.658 101.832C100.027 101.832 99.5167 101.662 99.128 101.322C98.7515 100.97 98.5633 100.532 98.5633 100.01C98.5633 99.4758 98.7515 99.0325 99.128 98.6803C99.5167 98.3281 100.027 98.1519 100.658 98.1519C101.278 98.1519 101.776 98.3281 102.152 98.6803C102.541 99.0325 102.735 99.4758 102.735 100.01C102.735 100.532 102.541 100.97 102.152 101.322C101.776 101.662 101.278 101.832 100.658 101.832ZM102.426 102.779V113H98.8547V102.779H102.426ZM111.145 102.688C112.323 102.688 113.259 103.083 113.951 103.873C114.643 104.65 114.989 105.707 114.989 107.043V113H111.419V107.516C111.419 106.933 111.267 106.478 110.963 106.15C110.659 105.81 110.253 105.64 109.742 105.64C109.208 105.64 108.789 105.81 108.485 106.15C108.182 106.478 108.03 106.933 108.03 107.516V113H104.459V102.779H108.03V104.237C108.346 103.775 108.771 103.405 109.305 103.126C109.84 102.834 110.453 102.688 111.145 102.688ZM120.72 102.652C121.412 102.652 122.013 102.792 122.524 103.071C123.046 103.35 123.447 103.727 123.726 104.2V102.779H127.297V112.891C127.297 113.85 127.115 114.713 126.75 115.478C126.386 116.255 125.815 116.874 125.038 117.336C124.273 117.798 123.301 118.028 122.123 118.028C120.544 118.028 119.281 117.658 118.333 116.917C117.386 116.176 116.845 115.168 116.712 113.893H120.228C120.301 114.221 120.483 114.476 120.775 114.658C121.066 114.84 121.443 114.931 121.904 114.931C123.119 114.931 123.726 114.251 123.726 112.891V111.579C123.447 112.053 123.046 112.429 122.524 112.709C122.013 112.988 121.412 113.128 120.72 113.128C119.906 113.128 119.165 112.915 118.497 112.49C117.841 112.065 117.319 111.458 116.93 110.668C116.554 109.866 116.366 108.937 116.366 107.881C116.366 106.824 116.554 105.901 116.93 105.111C117.319 104.322 117.841 103.715 118.497 103.29C119.165 102.864 119.906 102.652 120.72 102.652ZM123.726 107.881C123.726 107.225 123.544 106.709 123.179 106.332C122.827 105.956 122.39 105.767 121.868 105.767C121.333 105.767 120.89 105.956 120.538 106.332C120.185 106.696 120.009 107.213 120.009 107.881C120.009 108.536 120.185 109.059 120.538 109.447C120.89 109.824 121.333 110.012 121.868 110.012C122.39 110.012 122.827 109.824 123.179 109.447C123.544 109.071 123.726 108.549 123.726 107.881ZM137.665 113.128C136.171 113.128 134.944 112.775 133.985 112.071C133.025 111.354 132.509 110.334 132.436 109.01H136.244C136.28 109.46 136.414 109.787 136.645 109.994C136.875 110.2 137.173 110.304 137.537 110.304C137.865 110.304 138.132 110.225 138.339 110.067C138.557 109.897 138.667 109.666 138.667 109.375C138.667 108.998 138.491 108.707 138.138 108.5C137.786 108.294 137.215 108.063 136.426 107.808C135.588 107.528 134.908 107.261 134.385 107.006C133.875 106.739 133.426 106.356 133.037 105.858C132.661 105.348 132.473 104.686 132.473 103.873C132.473 103.047 132.679 102.342 133.092 101.759C133.505 101.164 134.076 100.715 134.804 100.411C135.533 100.107 136.359 99.9556 137.282 99.9556C138.776 99.9556 139.966 100.308 140.853 101.012C141.752 101.705 142.232 102.682 142.292 103.945H138.412C138.4 103.557 138.278 103.265 138.047 103.071C137.829 102.877 137.543 102.779 137.191 102.779C136.924 102.779 136.705 102.858 136.535 103.016C136.365 103.174 136.28 103.399 136.28 103.69C136.28 103.933 136.371 104.146 136.553 104.328C136.748 104.498 136.985 104.65 137.264 104.783C137.543 104.905 137.956 105.063 138.503 105.257C139.317 105.537 139.985 105.816 140.507 106.095C141.041 106.362 141.497 106.745 141.873 107.243C142.262 107.729 142.456 108.348 142.456 109.101C142.456 109.866 142.262 110.553 141.873 111.16C141.497 111.767 140.944 112.247 140.215 112.599C139.499 112.951 138.649 113.128 137.665 113.128ZM148.871 113.128C147.851 113.128 146.934 112.915 146.12 112.49C145.319 112.065 144.687 111.458 144.226 110.668C143.764 109.879 143.533 108.949 143.533 107.881C143.533 106.824 143.764 105.901 144.226 105.111C144.699 104.322 145.337 103.715 146.139 103.29C146.952 102.864 147.869 102.652 148.889 102.652C149.91 102.652 150.821 102.864 151.622 103.29C152.436 103.715 153.074 104.322 153.535 105.111C154.009 105.901 154.246 106.824 154.246 107.881C154.246 108.937 154.009 109.866 153.535 110.668C153.074 111.458 152.436 112.065 151.622 112.49C150.809 112.915 149.892 113.128 148.871 113.128ZM148.871 110.03C149.369 110.03 149.782 109.848 150.11 109.484C150.45 109.107 150.62 108.573 150.62 107.881C150.62 107.188 150.45 106.66 150.11 106.296C149.782 105.931 149.375 105.749 148.889 105.749C148.404 105.749 147.997 105.931 147.669 106.296C147.341 106.66 147.177 107.188 147.177 107.881C147.177 108.585 147.335 109.119 147.651 109.484C147.966 109.848 148.373 110.03 148.871 110.03ZM160.454 113.128C159.433 113.128 158.516 112.915 157.703 112.49C156.901 112.065 156.269 111.458 155.808 110.668C155.346 109.879 155.116 108.949 155.116 107.881C155.116 106.824 155.346 105.901 155.808 105.111C156.282 104.322 156.919 103.715 157.721 103.29C158.535 102.864 159.452 102.652 160.472 102.652C161.492 102.652 162.403 102.864 163.205 103.29C164.018 103.715 164.656 104.322 165.117 105.111C165.591 105.901 165.828 106.824 165.828 107.881C165.828 108.937 165.591 109.866 165.117 110.668C164.656 111.458 164.018 112.065 163.205 112.49C162.391 112.915 161.474 113.128 160.454 113.128ZM160.454 110.03C160.952 110.03 161.364 109.848 161.692 109.484C162.032 109.107 162.203 108.573 162.203 107.881C162.203 107.188 162.032 106.66 161.692 106.296C161.364 105.931 160.958 105.749 160.472 105.749C159.986 105.749 159.579 105.931 159.251 106.296C158.923 106.66 158.759 107.188 158.759 107.881C158.759 108.585 158.917 109.119 159.233 109.484C159.549 109.848 159.956 110.03 160.454 110.03ZM173.967 102.688C175.145 102.688 176.08 103.083 176.773 103.873C177.465 104.65 177.811 105.707 177.811 107.043V113H174.24V107.516C174.24 106.933 174.088 106.478 173.785 106.15C173.481 105.81 173.074 105.64 172.564 105.64C172.03 105.64 171.611 105.81 171.307 106.15C171.003 106.478 170.852 106.933 170.852 107.516V113H167.281V102.779H170.852V104.237C171.167 103.775 171.592 103.405 172.127 103.126C172.661 102.834 173.275 102.688 173.967 102.688ZM181.501 113.146C180.87 113.146 180.359 112.976 179.971 112.636C179.594 112.283 179.406 111.84 179.406 111.306C179.406 110.771 179.594 110.328 179.971 109.976C180.359 109.624 180.87 109.447 181.501 109.447C182.121 109.447 182.619 109.624 182.995 109.976C183.384 110.328 183.578 110.771 183.578 111.306C183.578 111.828 183.384 112.265 182.995 112.617C182.619 112.97 182.121 113.146 181.501 113.146ZM186.981 113.146C186.349 113.146 185.839 112.976 185.451 112.636C185.074 112.283 184.886 111.84 184.886 111.306C184.886 110.771 185.074 110.328 185.451 109.976C185.839 109.624 186.349 109.447 186.981 109.447C187.6 109.447 188.098 109.624 188.475 109.976C188.863 110.328 189.058 110.771 189.058 111.306C189.058 111.828 188.863 112.265 188.475 112.617C188.098 112.97 187.6 113.146 186.981 113.146ZM192.461 113.146C191.829 113.146 191.319 112.976 190.93 112.636C190.554 112.283 190.366 111.84 190.366 111.306C190.366 110.771 190.554 110.328 190.93 109.976C191.319 109.624 191.829 109.447 192.461 109.447C193.08 109.447 193.578 109.624 193.955 109.976C194.343 110.328 194.538 110.771 194.538 111.306C194.538 111.828 194.343 112.265 193.955 112.617C193.578 112.97 193.08 113.146 192.461 113.146ZM197.94 113.146C197.309 113.146 196.799 112.976 196.41 112.636C196.034 112.283 195.845 111.84 195.845 111.306C195.845 110.771 196.034 110.328 196.41 109.976C196.799 109.624 197.309 109.447 197.94 109.447C198.56 109.447 199.058 109.624 199.434 109.976C199.823 110.328 200.017 110.771 200.017 111.306C200.017 111.828 199.823 112.265 199.434 112.617C199.058 112.97 198.56 113.146 197.94 113.146Z" fill="white"/>
</svg>
