<svg width="255" height="213" viewBox="0 0 255 213" fill="none" xmlns="http://www.w3.org/2000/svg">
<g clip-path="url(#clip0_2293_13)">
<rect width="255" height="213" rx="15" fill="#BEFEA8"/>
<g opacity="0.4">
<path opacity="0.1" d="M38.6261 89.5047V123H28.1706V106.3L23.0139 123H14.025L8.86825 106.3V123H-1.63451V89.5047H11.2337L18.614 109.611L25.8051 89.5047H38.6261ZM56.0442 123.331C53.3633 123.331 50.9505 122.779 48.8058 121.675C46.6611 120.571 44.9737 118.994 43.7436 116.944C42.5451 114.863 41.9459 112.434 41.9459 109.659C41.9459 106.883 42.5451 104.47 43.7436 102.42C44.9737 100.339 46.6611 98.7459 48.8058 97.642C50.9505 96.5381 53.3633 95.9861 56.0442 95.9861C58.7251 95.9861 61.1379 96.5381 63.2826 97.642C65.4273 98.7459 67.0989 100.339 68.2974 102.42C69.5274 104.47 70.1425 106.883 70.1425 109.659C70.1425 112.434 69.5274 114.863 68.2974 116.944C67.0989 118.994 65.4273 120.571 63.2826 121.675C61.1379 122.779 58.7251 123.331 56.0442 123.331ZM56.0442 114.248C57.0219 114.248 57.8419 113.869 58.5043 113.112C59.1666 112.324 59.4978 111.173 59.4978 109.659C59.4978 108.145 59.1666 107.009 58.5043 106.252C57.8419 105.464 57.0219 105.07 56.0442 105.07C55.0664 105.07 54.2464 105.464 53.5841 106.252C52.9217 107.009 52.5906 108.145 52.5906 109.659C52.5906 111.173 52.906 112.324 53.5368 113.112C54.1991 113.869 55.0349 114.248 56.0442 114.248ZM92.1293 96.1281C95.1887 96.1281 97.5699 97.1531 99.2731 99.2032C101.008 101.253 101.875 104.029 101.875 107.53V123H91.4196V108.854C91.4196 107.593 91.0727 106.599 90.3788 105.874C89.7165 105.117 88.8176 104.738 87.6822 104.738C86.5152 104.738 85.6005 105.117 84.9382 105.874C84.2759 106.599 83.9447 107.593 83.9447 108.854V123H73.4419V96.3173H83.9447V100.386C84.7647 99.1244 85.8529 98.0993 87.2091 97.3108C88.5968 96.5223 90.2369 96.1281 92.1293 96.1281ZM132.26 109.422C132.26 110.148 132.213 110.841 132.119 111.504H115.229C115.387 113.806 116.349 114.957 118.115 114.957C119.25 114.957 120.07 114.437 120.575 113.396H131.693C131.314 115.289 130.51 116.992 129.28 118.506C128.081 119.988 126.552 121.171 124.691 122.054C122.862 122.905 120.843 123.331 118.635 123.331C115.986 123.331 113.62 122.779 111.539 121.675C109.489 120.571 107.88 118.994 106.713 116.944C105.578 114.863 105.01 112.434 105.01 109.659C105.01 106.883 105.578 104.47 106.713 102.42C107.88 100.339 109.489 98.7459 111.539 97.642C113.62 96.5381 115.986 95.9861 118.635 95.9861C121.285 95.9861 123.634 96.5381 125.684 97.642C127.766 98.7143 129.375 100.26 130.51 102.278C131.677 104.297 132.26 106.678 132.26 109.422ZM121.616 106.915C121.616 106.032 121.332 105.369 120.764 104.928C120.197 104.455 119.487 104.218 118.635 104.218C116.774 104.218 115.686 105.117 115.371 106.915H121.616ZM165.718 96.3173L148.64 135.774H137.143L143.861 121.675L132.744 96.3173H144.429L149.444 109.848L154.128 96.3173H165.718ZM174.219 109.659C174.219 106.883 174.787 104.47 175.922 102.42C177.089 100.339 178.698 98.7459 180.748 97.642C182.829 96.5381 185.195 95.9861 187.844 95.9861C191.314 95.9861 194.231 96.9639 196.597 98.9194C198.994 100.875 200.507 103.587 201.138 107.057H190.02C189.61 105.669 188.806 104.975 187.608 104.975C186.756 104.975 186.078 105.369 185.573 106.158C185.1 106.946 184.864 108.113 184.864 109.659C184.864 111.204 185.1 112.371 185.573 113.16C186.078 113.948 186.756 114.342 187.608 114.342C188.806 114.342 189.61 113.648 190.02 112.261H201.138C200.507 115.73 198.994 118.442 196.597 120.398C194.231 122.353 191.314 123.331 187.844 123.331C185.195 123.331 182.829 122.779 180.748 121.675C178.698 120.571 177.089 118.994 175.922 116.944C174.787 114.863 174.219 112.434 174.219 109.659ZM203.048 109.659C203.048 106.852 203.522 104.423 204.468 102.373C205.445 100.291 206.77 98.7143 208.442 97.642C210.113 96.5381 211.99 95.9861 214.072 95.9861C215.806 95.9861 217.304 96.3489 218.566 97.0743C219.828 97.7681 220.79 98.7301 221.452 99.9602V96.3173H231.907V123H221.452V119.357C220.79 120.587 219.828 121.565 218.566 122.29C217.304 122.984 215.806 123.331 214.072 123.331C211.99 123.331 210.113 122.795 208.442 121.723C206.77 120.619 205.445 119.042 204.468 116.992C203.522 114.91 203.048 112.466 203.048 109.659ZM221.452 109.659C221.452 108.239 221.089 107.135 220.364 106.347C219.638 105.558 218.708 105.164 217.572 105.164C216.437 105.164 215.507 105.558 214.781 106.347C214.056 107.135 213.693 108.239 213.693 109.659C213.693 111.078 214.056 112.182 214.781 112.97C215.507 113.759 216.437 114.153 217.572 114.153C218.708 114.153 219.638 113.759 220.364 112.97C221.089 112.182 221.452 111.078 221.452 109.659ZM247.126 101.238C248.199 99.6921 249.508 98.462 251.053 97.5474C252.598 96.6012 254.207 96.1281 255.879 96.1281V107.34H252.898C250.911 107.34 249.444 107.687 248.498 108.381C247.584 109.075 247.126 110.305 247.126 112.071V123H236.624V96.3173H247.126V101.238ZM284.539 109.422C284.539 110.148 284.491 110.841 284.397 111.504H267.507C267.665 113.806 268.627 114.957 270.393 114.957C271.528 114.957 272.349 114.437 272.853 113.396H283.971C283.592 115.289 282.788 116.992 281.558 118.506C280.36 119.988 278.83 121.171 276.969 122.054C275.14 122.905 273.121 123.331 270.913 123.331C268.264 123.331 265.899 122.779 263.817 121.675C261.767 120.571 260.158 118.994 258.991 116.944C257.856 114.863 257.288 112.434 257.288 109.659C257.288 106.883 257.856 104.47 258.991 102.42C260.158 100.339 261.767 98.7459 263.817 97.642C265.899 96.5381 268.264 95.9861 270.913 95.9861C273.563 95.9861 275.913 96.5381 277.963 97.642C280.044 98.7143 281.653 100.26 282.788 102.278C283.955 104.297 284.539 106.678 284.539 109.422ZM273.894 106.915C273.894 106.032 273.61 105.369 273.042 104.928C272.475 104.455 271.765 104.218 270.913 104.218C269.053 104.218 267.964 105.117 267.649 106.915H273.894Z" fill="#14684E"/>
</g>
<path d="M113.699 45.3765L96.209 51.4626V51.8762L104.541 81.3025L108.322 83.1343L110.863 83.4888L116.299 67.1803L115.649 49.3354L113.699 45.3765Z" fill="#38AF79" stroke="#57D6A1" stroke-width="0.118178"/>
<path d="M124.748 34.9175L114.053 37.8128C114.388 41.0627 115.247 49.9497 116.003 59.4985C116.76 69.0472 112.182 79.9432 109.799 84.1976L113.344 85.3794H116.003C119.391 81.9326 126.462 74.8143 127.644 73.9162C129.121 72.7935 134.025 58.9667 134.616 56.8395C135.089 55.1377 135.089 46.1247 135.03 41.8309L134.616 36.6901L132.371 35.3902L128.648 34.9175H124.748Z" fill="#57D6A1" stroke="#57D6A1" stroke-width="0.118178"/>
<path d="M157.898 32.0813C155.913 28.9614 140.802 26.6451 133.494 25.877C133.928 29.0284 134.901 37.1984 135.326 44.6672C135.858 54.0033 131.426 66.5301 127.526 73.6799C124.407 79.3997 117.284 84.2568 114.113 85.9704L120.259 88.5703H129.181C132.825 87.8021 141.176 85.7222 145.43 83.5477C150.748 80.8296 157.898 70.9027 160.498 66.5301C162.578 63.0321 163.374 52.5851 163.512 47.7989C163.039 45.4157 162.034 40.4483 161.798 39.6447C161.503 38.6402 160.38 35.9812 157.898 32.0813Z" fill="#BEFEA8" stroke="black" stroke-width="0.118178"/>
<path d="M123.818 14.0405C116.349 14.7495 109.715 17.2549 103.964 21.5723C102.073 22.9905 98.9217 26.0473 97.3932 27.9382C91.3268 35.4858 88.3014 45.3182 89.1365 54.7567C90.1765 66.3854 96.1642 76.4856 105.823 82.9775C112.425 87.4053 119.831 89.4852 128.072 89.2173C135.1 88.981 140.505 87.4053 146.067 83.9545C156.23 77.6674 162.643 67.6617 164.093 55.8597C164.408 53.3228 164.329 48.5011 163.935 46.0115C162.044 34.0361 154.938 24.0777 144.113 18.2318C140.788 16.4355 136.156 14.9386 132.011 14.3398C130.388 14.1035 125.22 13.9144 123.818 14.0405ZM140.914 27.9539C147.249 29.0096 152.637 31.4835 156.908 35.2652C159.177 37.2821 160.043 38.4008 160.563 39.9608C160.8 40.6856 161.004 41.3474 161.004 41.4577C161.004 41.5523 160.343 40.9692 159.555 40.1499C155.489 35.99 149.801 32.5865 143.971 30.8375L142.915 30.5381L142.742 31.4362C142.332 33.5004 140.52 35.1391 138.267 35.4543L137.526 35.5646L137.637 37.2506C137.716 38.1645 137.763 41.3947 137.763 44.4358C137.747 51.1956 137.463 53.8427 136.108 59.405C134.17 67.3938 130.861 73.996 125.598 80.3146C124.054 82.1582 121.517 84.6478 120.068 85.7508L118.917 86.6174L117.814 86.3495C117.216 86.2077 116.727 86.0659 116.727 86.0344C116.727 86.0029 117.342 85.5302 118.114 84.9787C122.006 82.0951 125.614 78.1559 128.513 73.5863C129.727 71.6797 131.948 67.2047 132.689 65.1563C134.044 61.4849 135.068 57.4669 135.62 53.5749C136.644 46.5472 136.455 38.4008 135.084 30.0496C134.863 28.726 134.69 27.6073 134.69 27.5442C134.69 27.3552 139.039 27.6545 140.914 27.9539ZM145.988 33.4689C149.518 34.887 151.944 36.2106 154.702 38.259C156.577 39.6614 159.476 42.5607 160.957 44.5146C162.06 45.9957 162.076 46.0273 162.281 47.4296C162.738 50.6283 162.486 55.7966 161.698 59.3262C161.257 61.217 159.807 65.4399 159.429 65.8339C159.366 65.8969 159.161 65.5345 158.972 65.0145C158.515 63.7539 157.238 61.8631 156.309 61.0595C154.15 59.2159 151.077 58.3808 148.367 58.9165C144.68 59.6413 141.686 61.8316 139.669 65.2666C136.691 70.3404 137.306 76.8165 141.088 80.2673C141.923 81.0236 144.239 82.3315 144.743 82.3315C145.232 82.3315 144.601 82.7412 142.647 83.7181C139.559 85.2623 136.707 86.2235 133.114 86.9325C131.46 87.2634 130.893 87.295 126.812 87.2792C124.338 87.2792 122.116 87.2004 121.88 87.1216L121.438 86.9798L122.573 86.0344C124.637 84.3169 127.505 81.0552 129.774 77.8722C136.644 68.2132 140.079 55.7494 139.669 41.9777C139.622 40.1026 139.528 38.2433 139.48 37.8493C139.386 37.2191 139.417 37.1088 139.669 37.0142C141.418 36.447 143.199 34.9973 143.845 33.6265C144.05 33.201 144.27 32.8544 144.333 32.8544C144.397 32.8544 145.153 33.138 145.988 33.4689ZM132.374 36.7779C133.209 36.9512 133.981 37.1403 134.06 37.1876C134.249 37.3136 134.265 38.6845 134.076 38.6845C134.013 38.6845 133.036 38.5427 131.917 38.3536C129.238 37.9281 125.772 37.8021 123.487 38.0384C120.84 38.3221 120.982 38.2433 120.982 39.3148C120.982 41.3632 119.768 43.0019 117.862 43.5849C117.09 43.8055 117.09 43.7898 117.499 45.7909C120.005 58.0656 119.39 69.2059 115.719 78.471C114.553 81.3861 113.008 84.5375 112.725 84.5375C112.536 84.5375 111.779 84.2696 111.559 84.1278C111.527 84.112 111.795 83.5763 112.158 82.9618C114.364 79.1801 116.16 73.3027 116.979 67.189C117.31 64.6206 117.436 58.4596 117.216 55.4342C116.853 50.6441 115.876 45.0346 114.616 40.4177C114.017 38.2118 113.875 38.4481 116.018 37.8493C118.019 37.2821 120.367 36.8094 122.352 36.5573C124.858 36.2264 130.341 36.3524 132.374 36.7779ZM131.539 40.1814C133.051 40.402 134.328 40.6226 134.375 40.6699C134.422 40.7171 134.438 42.4662 134.438 44.5619C134.407 52.2355 133.272 58.5226 130.735 65.1563C130.026 67.0156 127.852 71.2543 126.749 72.956C124.574 76.265 121.186 80.157 118.618 82.2527C117.31 83.3242 115.167 84.8526 114.978 84.8526C114.899 84.8526 115.151 84.2381 115.53 83.466C118.019 78.5025 119.626 73.2397 120.446 67.3623C120.777 64.8884 120.919 58.0972 120.682 55.1191C120.477 52.6452 120.068 49.5726 119.563 46.7836C119.406 45.8382 119.28 45.0661 119.296 45.0661C120.761 44.2152 121.927 42.9704 122.384 41.7571C122.573 41.2686 122.715 40.7644 122.715 40.6068C122.731 39.882 122.935 39.8347 126.26 39.8032C128.214 39.7875 129.396 39.882 131.539 40.1814ZM114.285 47.4454C114.332 47.7605 114.364 48.0284 114.332 48.0599C114.301 48.0757 113.576 48.249 112.709 48.4538C109.589 49.1629 104.121 51.3216 104.121 51.8416C104.121 51.9204 104.263 52.204 104.437 52.4719C104.626 52.7713 104.752 53.2125 104.752 53.6379C104.752 54.2682 104.673 54.41 104.027 55.0088L103.302 55.6863L103.948 56.679C106.312 60.2874 107.872 64.7781 108.392 69.584C108.644 71.8688 108.486 76.8008 108.061 79.574C107.872 80.7873 107.698 81.7957 107.667 81.8273C107.635 81.8745 107.352 81.7327 107.037 81.5436C106.658 81.3073 106.501 81.1182 106.564 80.9291C106.595 80.7873 106.737 79.9364 106.863 79.0225C107.793 72.2627 106.847 65.566 104.216 60.1928C103.019 57.7505 101.269 55.1979 99.7568 53.6852C99.552 53.4961 99.3944 53.2755 99.3944 53.2125C99.3944 52.5192 105.76 48.9896 108.833 47.9811C110.535 47.4139 112.756 46.9096 113.591 46.8939C114.127 46.8781 114.174 46.9097 114.285 47.4454ZM114.742 50.3762C115.372 53.4016 115.64 60.5395 115.309 64.6048C114.931 69.0168 114.001 73.6336 112.867 76.5014C112.079 78.5183 109.841 83.1193 109.636 83.1193C109.432 83.1193 109.432 82.946 109.715 81.4964C110.802 75.8238 110.708 69.1113 109.479 64.463C108.786 61.8316 107.289 58.239 106.217 56.616C105.855 56.0802 105.839 55.9857 106.044 55.7336C106.469 55.2451 106.721 54.3785 106.69 53.4803C106.674 52.6137 106.69 52.5822 107.241 52.3143C108.723 51.6052 113.591 50.0768 114.474 50.0295C114.584 50.0295 114.71 50.1871 114.742 50.3762ZM152.37 60.9019C154.875 61.674 156.86 63.8957 157.632 66.7635C158.074 68.418 157.979 68.8435 156.766 70.6713C154.591 73.9487 151.645 77.2577 148.604 79.8419L147.264 80.9764L146.146 80.7873C140.757 79.8576 138.062 73.7281 140.457 67.772C141.86 64.2424 145.011 61.4692 148.478 60.6971C149.36 60.4922 151.408 60.6025 152.37 60.9019Z" fill="#14684E"/>
<path d="M43.8289 134.148H49.3157L55.1107 148.287H55.3573L61.1524 134.148H66.6392V155.191H62.3237V141.495H62.149L56.7034 155.089H53.7647L48.319 141.444H48.1444V155.191H43.8289V134.148ZM77.3533 155.5C75.7573 155.5 74.377 155.161 73.2125 154.482C72.0549 153.797 71.161 152.845 70.5308 151.626C69.9006 150.4 69.5855 148.979 69.5855 147.362C69.5855 145.732 69.9006 144.307 70.5308 143.088C71.161 141.861 72.0549 140.909 73.2125 140.231C74.377 139.546 75.7573 139.204 77.3533 139.204C78.9493 139.204 80.3261 139.546 81.4838 140.231C82.6483 140.909 83.5456 141.861 84.1758 143.088C84.806 144.307 85.1211 145.732 85.1211 147.362C85.1211 148.979 84.806 150.4 84.1758 151.626C83.5456 152.845 82.6483 153.797 81.4838 154.482C80.3261 155.161 78.9493 155.5 77.3533 155.5ZM77.3738 152.109C78.0999 152.109 78.7061 151.903 79.1925 151.492C79.6788 151.075 80.0453 150.506 80.2919 149.787C80.5453 149.068 80.6721 148.249 80.6721 147.331C80.6721 146.413 80.5453 145.595 80.2919 144.875C80.0453 144.156 79.6788 143.588 79.1925 143.17C78.7061 142.752 78.0999 142.543 77.3738 142.543C76.6409 142.543 76.0244 142.752 75.5244 143.17C75.0312 143.588 74.6578 144.156 74.4044 144.875C74.1578 145.595 74.0345 146.413 74.0345 147.331C74.0345 148.249 74.1578 149.068 74.4044 149.787C74.6578 150.506 75.0312 151.075 75.5244 151.492C76.0244 151.903 76.6409 152.109 77.3738 152.109ZM92.3443 146.067V155.191H87.9672V139.409H92.1388V142.194H92.3238C92.6731 141.276 93.2588 140.55 94.0808 140.015C94.9028 139.474 95.8994 139.204 97.0708 139.204C98.1668 139.204 99.1223 139.443 99.9375 139.923C100.753 140.402 101.386 141.087 101.838 141.978C102.29 142.862 102.516 143.916 102.516 145.143V155.191H98.1394V145.923C98.1462 144.958 97.8996 144.204 97.3996 143.663C96.8995 143.115 96.2111 142.841 95.3343 142.841C94.7452 142.841 94.2246 142.968 93.7725 143.221C93.3273 143.475 92.9779 143.845 92.7245 144.331C92.4779 144.81 92.3512 145.389 92.3443 146.067ZM113.159 155.5C111.535 155.5 110.138 155.171 108.967 154.513C107.802 153.849 106.905 152.91 106.274 151.698C105.644 150.479 105.329 149.037 105.329 147.372C105.329 145.749 105.644 144.324 106.274 143.098C106.905 141.872 107.792 140.916 108.936 140.231C110.086 139.546 111.436 139.204 112.984 139.204C114.025 139.204 114.994 139.372 115.892 139.707C116.796 140.036 117.584 140.533 118.255 141.197C118.933 141.861 119.461 142.697 119.837 143.704C120.214 144.704 120.402 145.876 120.402 147.218V148.42H107.076V145.708H116.282C116.282 145.078 116.145 144.519 115.871 144.033C115.597 143.547 115.217 143.166 114.731 142.892C114.251 142.612 113.693 142.471 113.056 142.471C112.391 142.471 111.802 142.625 111.289 142.933C110.782 143.235 110.384 143.642 110.097 144.156C109.809 144.663 109.662 145.228 109.655 145.852V148.431C109.655 149.211 109.799 149.886 110.086 150.455C110.381 151.023 110.795 151.462 111.33 151.77C111.864 152.078 112.498 152.232 113.231 152.232C113.717 152.232 114.162 152.164 114.566 152.027C114.97 151.89 115.316 151.684 115.604 151.41C115.892 151.136 116.111 150.801 116.262 150.403L120.31 150.67C120.104 151.643 119.683 152.493 119.046 153.219C118.416 153.938 117.601 154.5 116.601 154.904C115.608 155.301 114.46 155.5 113.159 155.5ZM125.537 161.11C124.982 161.11 124.462 161.065 123.976 160.976C123.496 160.894 123.099 160.788 122.784 160.658L123.77 157.39C124.284 157.548 124.746 157.633 125.157 157.647C125.575 157.661 125.935 157.565 126.236 157.359C126.544 157.154 126.794 156.805 126.986 156.311L127.243 155.644L121.581 139.409H126.185L129.452 150.999H129.616L132.915 139.409H137.549L131.415 156.897C131.12 157.746 130.719 158.486 130.212 159.116C129.712 159.753 129.079 160.243 128.312 160.586C127.544 160.935 126.62 161.11 125.537 161.11ZM165.134 141.516H160.634C160.552 140.933 160.384 140.416 160.13 139.964C159.877 139.505 159.551 139.115 159.154 138.793C158.757 138.471 158.298 138.224 157.777 138.053C157.264 137.882 156.705 137.796 156.103 137.796C155.013 137.796 154.065 138.067 153.256 138.608C152.448 139.142 151.821 139.923 151.376 140.95C150.931 141.971 150.708 143.211 150.708 144.67C150.708 146.17 150.931 147.43 151.376 148.451C151.828 149.472 152.458 150.242 153.267 150.763C154.075 151.284 155.01 151.544 156.072 151.544C156.668 151.544 157.219 151.465 157.726 151.308C158.24 151.15 158.695 150.92 159.093 150.619C159.49 150.311 159.819 149.938 160.079 149.499C160.346 149.061 160.531 148.561 160.634 147.999L165.134 148.02C165.018 148.985 164.727 149.917 164.261 150.814C163.802 151.705 163.182 152.503 162.401 153.208C161.627 153.907 160.702 154.462 159.627 154.873C158.558 155.277 157.349 155.479 156 155.479C154.123 155.479 152.445 155.054 150.965 154.205C149.492 153.356 148.328 152.126 147.472 150.516C146.622 148.907 146.198 146.958 146.198 144.67C146.198 142.375 146.629 140.423 147.492 138.813C148.355 137.204 149.527 135.977 151.006 135.135C152.486 134.285 154.15 133.861 156 133.861C157.219 133.861 158.349 134.032 159.39 134.375C160.439 134.717 161.367 135.217 162.175 135.875C162.983 136.525 163.641 137.323 164.148 138.269C164.661 139.214 164.99 140.296 165.134 141.516ZM172.743 155.489C171.736 155.489 170.838 155.315 170.051 154.965C169.263 154.609 168.64 154.085 168.181 153.393C167.729 152.695 167.502 151.825 167.502 150.783C167.502 149.907 167.663 149.17 167.985 148.574C168.307 147.978 168.746 147.499 169.301 147.136C169.855 146.773 170.486 146.499 171.191 146.314C171.904 146.129 172.65 145.999 173.431 145.923C174.349 145.828 175.089 145.739 175.65 145.656C176.212 145.567 176.62 145.437 176.873 145.266C177.127 145.095 177.253 144.841 177.253 144.506V144.444C177.253 143.793 177.048 143.29 176.637 142.933C176.233 142.577 175.657 142.399 174.911 142.399C174.123 142.399 173.496 142.574 173.03 142.923C172.565 143.266 172.256 143.697 172.106 144.218L168.057 143.889C168.263 142.93 168.667 142.101 169.27 141.403C169.873 140.697 170.65 140.156 171.602 139.779C172.561 139.395 173.671 139.204 174.931 139.204C175.808 139.204 176.647 139.306 177.449 139.512C178.257 139.717 178.973 140.036 179.596 140.468C180.226 140.899 180.723 141.454 181.086 142.132C181.449 142.803 181.63 143.608 181.63 144.547V155.191H177.479V153.003H177.356C177.103 153.496 176.764 153.931 176.339 154.308C175.914 154.678 175.404 154.969 174.808 155.181C174.212 155.387 173.524 155.489 172.743 155.489ZM173.996 152.469C174.64 152.469 175.209 152.342 175.702 152.088C176.195 151.828 176.582 151.479 176.863 151.04C177.144 150.602 177.284 150.105 177.284 149.55V147.876C177.147 147.965 176.959 148.047 176.719 148.122C176.486 148.191 176.222 148.256 175.928 148.318C175.633 148.372 175.339 148.424 175.044 148.472C174.75 148.513 174.483 148.55 174.243 148.585C173.729 148.66 173.28 148.78 172.897 148.944C172.513 149.109 172.215 149.331 172.003 149.612C171.791 149.886 171.684 150.229 171.684 150.64C171.684 151.236 171.9 151.691 172.332 152.006C172.77 152.314 173.325 152.469 173.996 152.469ZM185.026 155.191V139.409H189.27V142.163H189.434C189.722 141.183 190.205 140.444 190.883 139.943C191.561 139.437 192.342 139.183 193.226 139.183C193.445 139.183 193.681 139.197 193.935 139.224C194.188 139.252 194.411 139.289 194.602 139.337V143.221C194.397 143.16 194.113 143.105 193.75 143.057C193.387 143.009 193.054 142.985 192.753 142.985C192.109 142.985 191.534 143.125 191.027 143.406C190.527 143.68 190.129 144.064 189.835 144.557C189.547 145.05 189.403 145.619 189.403 146.263V155.191H185.026ZM203.323 155.5C201.7 155.5 200.302 155.171 199.131 154.513C197.967 153.849 197.069 152.91 196.439 151.698C195.809 150.479 195.494 149.037 195.494 147.372C195.494 145.749 195.809 144.324 196.439 143.098C197.069 141.872 197.956 140.916 199.1 140.231C200.251 139.546 201.601 139.204 203.149 139.204C204.19 139.204 205.159 139.372 206.056 139.707C206.961 140.036 207.748 140.533 208.42 141.197C209.098 141.861 209.625 142.697 210.002 143.704C210.379 144.704 210.567 145.876 210.567 147.218V148.42H197.241V145.708H206.447C206.447 145.078 206.31 144.519 206.036 144.033C205.762 143.547 205.382 143.166 204.895 142.892C204.416 142.612 203.858 142.471 203.221 142.471C202.556 142.471 201.967 142.625 201.453 142.933C200.946 143.235 200.549 143.642 200.261 144.156C199.974 144.663 199.826 145.228 199.82 145.852V148.431C199.82 149.211 199.963 149.886 200.251 150.455C200.546 151.023 200.96 151.462 201.494 151.77C202.029 152.078 202.662 152.232 203.395 152.232C203.882 152.232 204.327 152.164 204.731 152.027C205.135 151.89 205.481 151.684 205.769 151.41C206.056 151.136 206.276 150.801 206.426 150.403L210.475 150.67C210.269 151.643 209.848 152.493 209.211 153.219C208.581 153.938 207.765 154.5 206.765 154.904C205.772 155.301 204.625 155.5 203.323 155.5Z" fill="#14684E"/>
<path d="M97.759 175.448H96.0797L99.1372 166.763H101.079L104.141 175.448H102.462L100.142 168.544H100.074L97.759 175.448ZM97.8141 172.042H102.394V173.306H97.8141V172.042ZM113.353 175.575C112.703 175.575 112.145 175.432 111.678 175.147C111.215 174.861 110.857 174.467 110.606 173.964C110.357 173.457 110.232 172.875 110.232 172.216C110.232 171.555 110.36 170.971 110.614 170.465C110.868 169.956 111.228 169.56 111.691 169.278C112.158 168.992 112.709 168.849 113.345 168.849C113.874 168.849 114.342 168.947 114.749 169.142C115.159 169.334 115.485 169.607 115.728 169.96C115.971 170.311 116.11 170.721 116.144 171.19H114.677C114.617 170.876 114.476 170.615 114.253 170.406C114.032 170.194 113.737 170.088 113.366 170.088C113.052 170.088 112.777 170.172 112.539 170.342C112.302 170.509 112.117 170.749 111.984 171.063C111.854 171.377 111.789 171.753 111.789 172.191C111.789 172.635 111.854 173.016 111.984 173.336C112.114 173.653 112.296 173.897 112.531 174.07C112.768 174.239 113.047 174.324 113.366 174.324C113.592 174.324 113.795 174.282 113.973 174.197C114.154 174.109 114.305 173.983 114.426 173.819C114.548 173.655 114.631 173.456 114.677 173.221H116.144C116.107 173.682 115.971 174.091 115.737 174.447C115.502 174.8 115.183 175.077 114.778 175.278C114.374 175.476 113.899 175.575 113.353 175.575ZM125.739 175.575C125.089 175.575 124.53 175.432 124.064 175.147C123.6 174.861 123.242 174.467 122.991 173.964C122.742 173.457 122.618 172.875 122.618 172.216C122.618 171.555 122.745 170.971 122.999 170.465C123.254 169.956 123.613 169.56 124.076 169.278C124.543 168.992 125.094 168.849 125.73 168.849C126.259 168.849 126.727 168.947 127.134 169.142C127.544 169.334 127.87 169.607 128.114 169.96C128.357 170.311 128.495 170.721 128.529 171.19H127.062C127.003 170.876 126.861 170.615 126.638 170.406C126.417 170.194 126.122 170.088 125.752 170.088C125.438 170.088 125.162 170.172 124.925 170.342C124.687 170.509 124.502 170.749 124.369 171.063C124.239 171.377 124.174 171.753 124.174 172.191C124.174 172.635 124.239 173.016 124.369 173.336C124.499 173.653 124.681 173.897 124.916 174.07C125.154 174.239 125.432 174.324 125.752 174.324C125.978 174.324 126.18 174.282 126.358 174.197C126.539 174.109 126.69 173.983 126.812 173.819C126.933 173.655 127.017 173.456 127.062 173.221H128.529C128.492 173.682 128.357 174.091 128.122 174.447C127.887 174.8 127.568 175.077 127.164 175.278C126.759 175.476 126.284 175.575 125.739 175.575ZM138.124 175.575C137.488 175.575 136.937 175.435 136.47 175.155C136.004 174.875 135.642 174.484 135.385 173.98C135.13 173.477 135.003 172.889 135.003 172.216C135.003 171.544 135.13 170.954 135.385 170.448C135.642 169.942 136.004 169.549 136.47 169.269C136.937 168.989 137.488 168.849 138.124 168.849C138.76 168.849 139.312 168.989 139.778 169.269C140.245 169.549 140.605 169.942 140.859 170.448C141.117 170.954 141.245 171.544 141.245 172.216C141.245 172.889 141.117 173.477 140.859 173.98C140.605 174.484 140.245 174.875 139.778 175.155C139.312 175.435 138.76 175.575 138.124 175.575ZM138.133 174.345C138.478 174.345 138.766 174.25 138.998 174.061C139.23 173.869 139.402 173.612 139.515 173.289C139.631 172.967 139.689 172.608 139.689 172.212C139.689 171.813 139.631 171.453 139.515 171.131C139.402 170.806 139.23 170.547 138.998 170.355C138.766 170.162 138.478 170.066 138.133 170.066C137.779 170.066 137.485 170.162 137.251 170.355C137.019 170.547 136.845 170.806 136.729 171.131C136.616 171.453 136.559 171.813 136.559 172.212C136.559 172.608 136.616 172.967 136.729 173.289C136.845 173.612 137.019 173.869 137.251 174.061C137.485 174.25 137.779 174.345 138.133 174.345ZM152.193 172.708V168.934H153.728V175.448H152.24V174.29H152.172C152.025 174.655 151.783 174.953 151.447 175.185C151.113 175.417 150.702 175.533 150.213 175.533C149.786 175.533 149.408 175.438 149.08 175.248C148.755 175.056 148.501 174.778 148.317 174.413C148.133 174.046 148.041 173.602 148.041 173.081V168.934H149.577V172.844C149.577 173.257 149.69 173.585 149.916 173.828C150.142 174.071 150.439 174.193 150.806 174.193C151.033 174.193 151.252 174.137 151.464 174.027C151.676 173.917 151.85 173.753 151.985 173.535C152.124 173.315 152.193 173.039 152.193 172.708ZM162.335 171.631V175.448H160.8V168.934H162.267V170.041H162.344C162.493 169.676 162.732 169.386 163.06 169.172C163.391 168.957 163.8 168.849 164.286 168.849C164.735 168.849 165.127 168.945 165.46 169.138C165.797 169.33 166.057 169.608 166.241 169.973C166.427 170.338 166.519 170.78 166.516 171.3V175.448H164.981V171.538C164.981 171.102 164.868 170.762 164.642 170.516C164.419 170.27 164.109 170.147 163.713 170.147C163.445 170.147 163.206 170.206 162.997 170.325C162.79 170.441 162.628 170.609 162.509 170.83C162.393 171.05 162.335 171.317 162.335 171.631ZM176.823 168.934V170.121H173.078V168.934H176.823ZM174.003 167.374H175.538V173.489C175.538 173.695 175.569 173.853 175.631 173.964C175.696 174.071 175.781 174.144 175.886 174.184C175.99 174.224 176.106 174.243 176.233 174.243C176.329 174.243 176.417 174.236 176.496 174.222C176.578 174.208 176.64 174.195 176.683 174.184L176.941 175.384C176.86 175.412 176.742 175.444 176.59 175.477C176.44 175.511 176.256 175.531 176.038 175.537C175.654 175.548 175.307 175.49 174.999 175.363C174.691 175.233 174.447 175.032 174.266 174.761C174.088 174.489 174 174.15 174.003 173.743V167.374ZM183.6 175.448V168.934H185.135V175.448H183.6ZM184.372 168.01C184.128 168.01 183.919 167.929 183.744 167.768C183.569 167.604 183.481 167.407 183.481 167.178C183.481 166.947 183.569 166.75 183.744 166.589C183.919 166.425 184.128 166.343 184.372 166.343C184.618 166.343 184.827 166.425 184.999 166.589C185.175 166.75 185.262 166.947 185.262 167.178C185.262 167.407 185.175 167.604 184.999 167.768C184.827 167.929 184.618 168.01 184.372 168.01ZM193.742 171.631V175.448H192.207V168.934H193.674V170.041H193.75C193.9 169.676 194.139 169.386 194.467 169.172C194.798 168.957 195.206 168.849 195.693 168.849C196.142 168.849 196.534 168.945 196.867 169.138C197.204 169.33 197.464 169.608 197.647 169.973C197.834 170.338 197.926 170.78 197.923 171.3V175.448H196.388V171.538C196.388 171.102 196.275 170.762 196.049 170.516C195.825 170.27 195.516 170.147 195.12 170.147C194.851 170.147 194.613 170.206 194.403 170.325C194.197 170.441 194.034 170.609 193.916 170.83C193.8 171.05 193.742 171.317 193.742 171.631ZM207.81 178.026C207.258 178.026 206.785 177.951 206.389 177.801C205.993 177.654 205.675 177.456 205.435 177.208C205.195 176.959 205.028 176.683 204.934 176.381L206.317 176.046C206.379 176.173 206.47 176.299 206.588 176.423C206.707 176.55 206.867 176.655 207.068 176.737C207.271 176.822 207.527 176.864 207.835 176.864C208.27 176.864 208.631 176.758 208.916 176.546C209.202 176.337 209.345 175.992 209.345 175.511V174.277H209.268C209.189 174.436 209.073 174.598 208.921 174.765C208.771 174.932 208.572 175.072 208.323 175.185C208.077 175.298 207.767 175.354 207.394 175.354C206.894 175.354 206.44 175.237 206.033 175.002C205.629 174.765 205.306 174.412 205.066 173.942C204.828 173.47 204.71 172.879 204.71 172.17C204.71 171.454 204.828 170.851 205.066 170.359C205.306 169.864 205.63 169.49 206.037 169.235C206.444 168.978 206.898 168.849 207.398 168.849C207.78 168.849 208.094 168.914 208.34 169.044C208.589 169.172 208.786 169.326 208.933 169.507C209.08 169.685 209.192 169.853 209.268 170.011H209.353V168.934H210.867V175.554C210.867 176.111 210.734 176.572 210.469 176.936C210.203 177.301 209.84 177.574 209.379 177.755C208.918 177.936 208.395 178.026 207.81 178.026ZM207.822 174.15C208.148 174.15 208.425 174.071 208.654 173.913C208.883 173.754 209.056 173.527 209.175 173.23C209.294 172.933 209.353 172.577 209.353 172.161C209.353 171.751 209.294 171.392 209.175 171.084C209.059 170.776 208.887 170.537 208.658 170.367C208.432 170.195 208.153 170.109 207.822 170.109C207.48 170.109 207.195 170.198 206.966 170.376C206.737 170.554 206.564 170.799 206.448 171.11C206.332 171.418 206.275 171.768 206.275 172.161C206.275 172.56 206.332 172.909 206.448 173.209C206.567 173.506 206.741 173.737 206.97 173.904C207.202 174.068 207.486 174.15 207.822 174.15Z" fill="#14684E" fill-opacity="0.88"/>
</g>
<defs>
<clipPath id="clip0_2293_13">
<rect width="255" height="213" rx="15" fill="white"/>
</clipPath>
</defs>
</svg>
