<svg width="255" height="213" viewBox="0 0 255 213" fill="none" xmlns="http://www.w3.org/2000/svg">
<g clip-path="url(#clip0_2293_13)">
<rect width="255" height="213" fill="#BEFEA8"/>
<g opacity="0.4">
<path opacity="0.1" d="M38.6261 89.5047V123H28.1706V106.3L23.0139 123H14.025L8.86825 106.3V123H-1.63451V89.5047H11.2337L18.614 109.611L25.8051 89.5047H38.6261ZM56.0442 123.331C53.3633 123.331 50.9505 122.779 48.8058 121.675C46.6611 120.571 44.9737 118.994 43.7436 116.944C42.5451 114.863 41.9459 112.434 41.9459 109.659C41.9459 106.883 42.5451 104.47 43.7436 102.42C44.9737 100.339 46.6611 98.7459 48.8058 97.642C50.9505 96.5381 53.3633 95.9861 56.0442 95.9861C58.7251 95.9861 61.1379 96.5381 63.2826 97.642C65.4273 98.7459 67.0989 100.339 68.2974 102.42C69.5274 104.47 70.1425 106.883 70.1425 109.659C70.1425 112.434 69.5274 114.863 68.2974 116.944C67.0989 118.994 65.4273 120.571 63.2826 121.675C61.1379 122.779 58.7251 123.331 56.0442 123.331ZM56.0442 114.248C57.0219 114.248 57.8419 113.869 58.5043 113.112C59.1666 112.324 59.4978 111.173 59.4978 109.659C59.4978 108.145 59.1666 107.009 58.5043 106.252C57.8419 105.464 57.0219 105.07 56.0442 105.07C55.0664 105.07 54.2464 105.464 53.5841 106.252C52.9217 107.009 52.5906 108.145 52.5906 109.659C52.5906 111.173 52.906 112.324 53.5368 113.112C54.1991 113.869 55.0349 114.248 56.0442 114.248ZM92.1293 96.1281C95.1887 96.1281 97.5699 97.1531 99.2731 99.2032C101.008 101.253 101.875 104.029 101.875 107.53V123H91.4196V108.854C91.4196 107.593 91.0727 106.599 90.3788 105.874C89.7165 105.117 88.8176 104.738 87.6822 104.738C86.5152 104.738 85.6005 105.117 84.9382 105.874C84.2759 106.599 83.9447 107.593 83.9447 108.854V123H73.4419V96.3173H83.9447V100.386C84.7647 99.1244 85.8529 98.0993 87.2091 97.3108C88.5968 96.5223 90.2369 96.1281 92.1293 96.1281ZM132.26 109.422C132.26 110.148 132.213 110.841 132.119 111.504H115.229C115.387 113.806 116.349 114.957 118.115 114.957C119.25 114.957 120.07 114.437 120.575 113.396H131.693C131.314 115.289 130.51 116.992 129.28 118.506C128.081 119.988 126.552 121.171 124.691 122.054C122.862 122.905 120.843 123.331 118.635 123.331C115.986 123.331 113.62 122.779 111.539 121.675C109.489 120.571 107.88 118.994 106.713 116.944C105.578 114.863 105.01 112.434 105.01 109.659C105.01 106.883 105.578 104.47 106.713 102.42C107.88 100.339 109.489 98.7459 111.539 97.642C113.62 96.5381 115.986 95.9861 118.635 95.9861C121.285 95.9861 123.634 96.5381 125.684 97.642C127.766 98.7143 129.375 100.26 130.51 102.278C131.677 104.297 132.26 106.678 132.26 109.422ZM121.616 106.915C121.616 106.032 121.332 105.369 120.764 104.928C120.197 104.455 119.487 104.218 118.635 104.218C116.774 104.218 115.686 105.117 115.371 106.915H121.616ZM165.718 96.3173L148.64 135.774H137.143L143.861 121.675L132.744 96.3173H144.429L149.444 109.848L154.128 96.3173H165.718ZM174.219 109.659C174.219 106.883 174.787 104.47 175.922 102.42C177.089 100.339 178.698 98.7459 180.748 97.642C182.829 96.5381 185.195 95.9861 187.844 95.9861C191.314 95.9861 194.231 96.9639 196.597 98.9194C198.994 100.875 200.507 103.587 201.138 107.057H190.02C189.61 105.669 188.806 104.975 187.608 104.975C186.756 104.975 186.078 105.369 185.573 106.158C185.1 106.946 184.864 108.113 184.864 109.659C184.864 111.204 185.1 112.371 185.573 113.16C186.078 113.948 186.756 114.342 187.608 114.342C188.806 114.342 189.61 113.648 190.02 112.261H201.138C200.507 115.73 198.994 118.442 196.597 120.398C194.231 122.353 191.314 123.331 187.844 123.331C185.195 123.331 182.829 122.779 180.748 121.675C178.698 120.571 177.089 118.994 175.922 116.944C174.787 114.863 174.219 112.434 174.219 109.659ZM203.048 109.659C203.048 106.852 203.522 104.423 204.468 102.373C205.445 100.291 206.77 98.7143 208.442 97.642C210.113 96.5381 211.99 95.9861 214.072 95.9861C215.806 95.9861 217.304 96.3489 218.566 97.0743C219.828 97.7681 220.79 98.7301 221.452 99.9602V96.3173H231.907V123H221.452V119.357C220.79 120.587 219.828 121.565 218.566 122.29C217.304 122.984 215.806 123.331 214.072 123.331C211.99 123.331 210.113 122.795 208.442 121.723C206.77 120.619 205.445 119.042 204.468 116.992C203.522 114.91 203.048 112.466 203.048 109.659ZM221.452 109.659C221.452 108.239 221.089 107.135 220.364 106.347C219.638 105.558 218.708 105.164 217.572 105.164C216.437 105.164 215.507 105.558 214.781 106.347C214.056 107.135 213.693 108.239 213.693 109.659C213.693 111.078 214.056 112.182 214.781 112.97C215.507 113.759 216.437 114.153 217.572 114.153C218.708 114.153 219.638 113.759 220.364 112.97C221.089 112.182 221.452 111.078 221.452 109.659ZM247.126 101.238C248.199 99.6921 249.508 98.462 251.053 97.5474C252.598 96.6012 254.207 96.1281 255.879 96.1281V107.34H252.898C250.911 107.34 249.444 107.687 248.498 108.381C247.584 109.075 247.126 110.305 247.126 112.071V123H236.624V96.3173H247.126V101.238ZM284.539 109.422C284.539 110.148 284.491 110.841 284.397 111.504H267.507C267.665 113.806 268.627 114.957 270.393 114.957C271.528 114.957 272.349 114.437 272.853 113.396H283.971C283.592 115.289 282.788 116.992 281.558 118.506C280.36 119.988 278.83 121.171 276.969 122.054C275.14 122.905 273.121 123.331 270.913 123.331C268.264 123.331 265.899 122.779 263.817 121.675C261.767 120.571 260.158 118.994 258.991 116.944C257.856 114.863 257.288 112.434 257.288 109.659C257.288 106.883 257.856 104.47 258.991 102.42C260.158 100.339 261.767 98.7459 263.817 97.642C265.899 96.5381 268.264 95.9861 270.913 95.9861C273.563 95.9861 275.913 96.5381 277.963 97.642C280.044 98.7143 281.653 100.26 282.788 102.278C283.955 104.297 284.539 106.678 284.539 109.422ZM273.894 106.915C273.894 106.032 273.61 105.369 273.042 104.928C272.475 104.455 271.765 104.218 270.913 104.218C269.053 104.218 267.964 105.117 267.649 106.915H273.894Z" fill="#14684E"/>
</g>
<path d="M113.699 45.3765L96.209 51.4626V51.8762L104.541 81.3025L108.322 83.1343L110.863 83.4888L116.299 67.1803L115.649 49.3354L113.699 45.3765Z" fill="#38AF79" stroke="#57D6A1" stroke-width="0.118178"/>
<path d="M124.748 34.9175L114.053 37.8128C114.388 41.0627 115.247 49.9497 116.003 59.4985C116.76 69.0472 112.182 79.9432 109.799 84.1976L113.344 85.3794H116.003C119.391 81.9326 126.462 74.8143 127.644 73.9162C129.121 72.7935 134.025 58.9667 134.616 56.8395C135.089 55.1377 135.089 46.1247 135.03 41.8309L134.616 36.6901L132.371 35.3902L128.648 34.9175H124.748Z" fill="#57D6A1" stroke="#57D6A1" stroke-width="0.118178"/>
<path d="M157.898 32.0813C155.913 28.9614 140.802 26.6451 133.494 25.877C133.928 29.0284 134.901 37.1984 135.326 44.6672C135.858 54.0033 131.426 66.5301 127.526 73.6799C124.407 79.3997 117.284 84.2568 114.113 85.9704L120.259 88.5703H129.181C132.825 87.8021 141.176 85.7222 145.43 83.5477C150.748 80.8296 157.898 70.9027 160.498 66.5301C162.578 63.0321 163.374 52.5851 163.512 47.7989C163.039 45.4157 162.034 40.4483 161.798 39.6447C161.503 38.6402 160.38 35.9812 157.898 32.0813Z" fill="#BEFEA8" stroke="black" stroke-width="0.118178"/>
<path d="M123.818 14.0405C116.349 14.7495 109.715 17.2549 103.964 21.5723C102.073 22.9905 98.9217 26.0473 97.3932 27.9382C91.3268 35.4858 88.3014 45.3182 89.1365 54.7567C90.1765 66.3854 96.1642 76.4856 105.823 82.9775C112.425 87.4053 119.831 89.4852 128.072 89.2173C135.1 88.981 140.505 87.4053 146.067 83.9545C156.23 77.6674 162.643 67.6617 164.093 55.8597C164.408 53.3228 164.329 48.5011 163.935 46.0115C162.044 34.0361 154.938 24.0777 144.113 18.2318C140.788 16.4355 136.156 14.9386 132.011 14.3398C130.388 14.1035 125.22 13.9144 123.818 14.0405ZM140.914 27.9539C147.249 29.0096 152.637 31.4835 156.908 35.2652C159.177 37.2821 160.043 38.4008 160.563 39.9608C160.8 40.6856 161.004 41.3474 161.004 41.4577C161.004 41.5523 160.343 40.9692 159.555 40.1499C155.489 35.99 149.801 32.5865 143.971 30.8375L142.915 30.5381L142.742 31.4362C142.332 33.5004 140.52 35.1391 138.267 35.4543L137.526 35.5646L137.637 37.2506C137.716 38.1645 137.763 41.3947 137.763 44.4358C137.747 51.1956 137.463 53.8427 136.108 59.405C134.17 67.3938 130.861 73.996 125.598 80.3146C124.054 82.1582 121.517 84.6478 120.068 85.7508L118.917 86.6174L117.814 86.3495C117.216 86.2077 116.727 86.0659 116.727 86.0344C116.727 86.0029 117.342 85.5302 118.114 84.9787C122.006 82.0951 125.614 78.1559 128.513 73.5863C129.727 71.6797 131.948 67.2047 132.689 65.1563C134.044 61.4849 135.068 57.4669 135.62 53.5749C136.644 46.5472 136.455 38.4008 135.084 30.0496C134.863 28.726 134.69 27.6073 134.69 27.5442C134.69 27.3552 139.039 27.6545 140.914 27.9539ZM145.988 33.4689C149.518 34.887 151.944 36.2106 154.702 38.259C156.577 39.6614 159.476 42.5607 160.957 44.5146C162.06 45.9957 162.076 46.0273 162.281 47.4296C162.738 50.6283 162.486 55.7966 161.698 59.3262C161.257 61.217 159.807 65.4399 159.429 65.8339C159.366 65.8969 159.161 65.5345 158.972 65.0145C158.515 63.7539 157.238 61.8631 156.309 61.0595C154.15 59.2159 151.077 58.3808 148.367 58.9165C144.68 59.6413 141.686 61.8316 139.669 65.2666C136.691 70.3404 137.306 76.8165 141.088 80.2673C141.923 81.0236 144.239 82.3315 144.743 82.3315C145.232 82.3315 144.601 82.7412 142.647 83.7181C139.559 85.2623 136.707 86.2235 133.114 86.9325C131.46 87.2634 130.893 87.295 126.812 87.2792C124.338 87.2792 122.116 87.2004 121.88 87.1216L121.438 86.9798L122.573 86.0344C124.637 84.3169 127.505 81.0552 129.774 77.8722C136.644 68.2132 140.079 55.7494 139.669 41.9777C139.622 40.1026 139.528 38.2433 139.48 37.8493C139.386 37.2191 139.417 37.1088 139.669 37.0142C141.418 36.447 143.199 34.9973 143.845 33.6265C144.05 33.201 144.27 32.8544 144.333 32.8544C144.397 32.8544 145.153 33.138 145.988 33.4689ZM132.374 36.7779C133.209 36.9512 133.981 37.1403 134.06 37.1876C134.249 37.3136 134.265 38.6845 134.076 38.6845C134.013 38.6845 133.036 38.5427 131.917 38.3536C129.238 37.9281 125.772 37.8021 123.487 38.0384C120.84 38.3221 120.982 38.2433 120.982 39.3148C120.982 41.3632 119.768 43.0019 117.862 43.5849C117.09 43.8055 117.09 43.7898 117.499 45.7909C120.005 58.0656 119.39 69.2059 115.719 78.471C114.553 81.3861 113.008 84.5375 112.725 84.5375C112.536 84.5375 111.779 84.2696 111.559 84.1278C111.527 84.112 111.795 83.5763 112.158 82.9618C114.364 79.1801 116.16 73.3027 116.979 67.189C117.31 64.6206 117.436 58.4596 117.216 55.4342C116.853 50.6441 115.876 45.0346 114.616 40.4177C114.017 38.2118 113.875 38.4481 116.018 37.8493C118.019 37.2821 120.367 36.8094 122.352 36.5573C124.858 36.2264 130.341 36.3524 132.374 36.7779ZM131.539 40.1814C133.051 40.402 134.328 40.6226 134.375 40.6699C134.422 40.7171 134.438 42.4662 134.438 44.5619C134.407 52.2355 133.272 58.5226 130.735 65.1563C130.026 67.0156 127.852 71.2543 126.749 72.956C124.574 76.265 121.186 80.157 118.618 82.2527C117.31 83.3242 115.167 84.8526 114.978 84.8526C114.899 84.8526 115.151 84.2381 115.53 83.466C118.019 78.5025 119.626 73.2397 120.446 67.3623C120.777 64.8884 120.919 58.0972 120.682 55.1191C120.477 52.6452 120.068 49.5726 119.563 46.7836C119.406 45.8382 119.28 45.0661 119.296 45.0661C120.761 44.2152 121.927 42.9704 122.384 41.7571C122.573 41.2686 122.715 40.7644 122.715 40.6068C122.731 39.882 122.935 39.8347 126.26 39.8032C128.214 39.7875 129.396 39.882 131.539 40.1814ZM114.285 47.4454C114.332 47.7605 114.364 48.0284 114.332 48.0599C114.301 48.0757 113.576 48.249 112.709 48.4538C109.589 49.1629 104.121 51.3216 104.121 51.8416C104.121 51.9204 104.263 52.204 104.437 52.4719C104.626 52.7713 104.752 53.2125 104.752 53.6379C104.752 54.2682 104.673 54.41 104.027 55.0088L103.302 55.6863L103.948 56.679C106.312 60.2874 107.872 64.7781 108.392 69.584C108.644 71.8688 108.486 76.8008 108.061 79.574C107.872 80.7873 107.698 81.7957 107.667 81.8273C107.635 81.8745 107.352 81.7327 107.037 81.5436C106.658 81.3073 106.501 81.1182 106.564 80.9291C106.595 80.7873 106.737 79.9364 106.863 79.0225C107.793 72.2627 106.847 65.566 104.216 60.1928C103.019 57.7505 101.269 55.1979 99.7568 53.6852C99.552 53.4961 99.3944 53.2755 99.3944 53.2125C99.3944 52.5192 105.76 48.9896 108.833 47.9811C110.535 47.4139 112.756 46.9096 113.591 46.8939C114.127 46.8781 114.174 46.9097 114.285 47.4454ZM114.742 50.3762C115.372 53.4016 115.64 60.5395 115.309 64.6048C114.931 69.0168 114.001 73.6336 112.867 76.5014C112.079 78.5183 109.841 83.1193 109.636 83.1193C109.432 83.1193 109.432 82.946 109.715 81.4964C110.802 75.8238 110.708 69.1113 109.479 64.463C108.786 61.8316 107.289 58.239 106.217 56.616C105.855 56.0802 105.839 55.9857 106.044 55.7336C106.469 55.2451 106.721 54.3785 106.69 53.4803C106.674 52.6137 106.69 52.5822 107.241 52.3143C108.723 51.6052 113.591 50.0768 114.474 50.0295C114.584 50.0295 114.71 50.1871 114.742 50.3762ZM152.37 60.9019C154.875 61.674 156.86 63.8957 157.632 66.7635C158.074 68.418 157.979 68.8435 156.766 70.6713C154.591 73.9487 151.645 77.2577 148.604 79.8419L147.264 80.9764L146.146 80.7873C140.757 79.8576 138.062 73.7281 140.457 67.772C141.86 64.2424 145.011 61.4692 148.478 60.6971C149.36 60.4922 151.408 60.6025 152.37 60.9019Z" fill="#14684E"/>
<path d="M65.58 134.9V149H61.66V141.22L59 149H55.72L53.04 141.16V149H49.12V134.9H53.86L57.4 144.06L60.86 134.9H65.58ZM73.0314 149.14C71.9114 149.14 70.9047 148.907 70.0114 148.44C69.1314 147.973 68.4381 147.307 67.9314 146.44C67.4247 145.573 67.1714 144.553 67.1714 143.38C67.1714 142.22 67.4247 141.207 67.9314 140.34C68.4514 139.473 69.1514 138.807 70.0314 138.34C70.9247 137.873 71.9314 137.64 73.0514 137.64C74.1714 137.64 75.1714 137.873 76.0514 138.34C76.9447 138.807 77.6447 139.473 78.1514 140.34C78.6714 141.207 78.9314 142.22 78.9314 143.38C78.9314 144.54 78.6714 145.56 78.1514 146.44C77.6447 147.307 76.9447 147.973 76.0514 148.44C75.1581 148.907 74.1514 149.14 73.0314 149.14ZM73.0314 145.74C73.5781 145.74 74.0314 145.54 74.3914 145.14C74.7647 144.727 74.9514 144.14 74.9514 143.38C74.9514 142.62 74.7647 142.04 74.3914 141.64C74.0314 141.24 73.5847 141.04 73.0514 141.04C72.5181 141.04 72.0714 141.24 71.7114 141.64C71.3514 142.04 71.1714 142.62 71.1714 143.38C71.1714 144.153 71.3447 144.74 71.6914 145.14C72.0381 145.54 72.4847 145.74 73.0314 145.74ZM87.8663 137.68C89.1596 137.68 90.1863 138.113 90.9463 138.98C91.7063 139.833 92.0863 140.993 92.0863 142.46V149H88.1663V142.98C88.1663 142.34 87.9996 141.84 87.6663 141.48C87.3329 141.107 86.8863 140.92 86.3263 140.92C85.7396 140.92 85.2796 141.107 84.9463 141.48C84.6129 141.84 84.4463 142.34 84.4463 142.98V149H80.5263V137.78H84.4463V139.38C84.7929 138.873 85.2596 138.467 85.8463 138.16C86.4329 137.84 87.1063 137.68 87.8663 137.68ZM104.957 143.26C104.957 143.567 104.937 143.873 104.897 144.18H97.4772C97.5172 144.793 97.6839 145.253 97.9772 145.56C98.2839 145.853 98.6705 146 99.1372 146C99.7905 146 100.257 145.707 100.537 145.12H104.717C104.544 145.893 104.204 146.587 103.697 147.2C103.204 147.8 102.577 148.273 101.817 148.62C101.057 148.967 100.217 149.14 99.2972 149.14C98.1905 149.14 97.2039 148.907 96.3372 148.44C95.4839 147.973 94.8105 147.307 94.3172 146.44C93.8372 145.573 93.5972 144.553 93.5972 143.38C93.5972 142.207 93.8372 141.193 94.3172 140.34C94.7972 139.473 95.4639 138.807 96.3172 138.34C97.1839 137.873 98.1772 137.64 99.2972 137.64C100.404 137.64 101.384 137.867 102.237 138.32C103.091 138.773 103.757 139.427 104.237 140.28C104.717 141.12 104.957 142.113 104.957 143.26ZM100.957 142.28C100.957 141.8 100.797 141.427 100.477 141.16C100.157 140.88 99.7572 140.74 99.2772 140.74C98.7972 140.74 98.4039 140.873 98.0972 141.14C97.7905 141.393 97.5905 141.773 97.4972 142.28H100.957ZM118.641 137.78L111.521 154.34H107.261L109.941 148.52L105.341 137.78H109.701L112.061 144.14L114.341 137.78H118.641ZM123.015 141.92C123.015 140.533 123.302 139.3 123.875 138.22C124.462 137.127 125.288 136.28 126.355 135.68C127.422 135.067 128.648 134.76 130.035 134.76C131.795 134.76 133.275 135.233 134.475 136.18C135.675 137.113 136.448 138.387 136.795 140H132.575C132.322 139.467 131.968 139.06 131.515 138.78C131.075 138.5 130.562 138.36 129.975 138.36C129.068 138.36 128.342 138.687 127.795 139.34C127.262 139.98 126.995 140.84 126.995 141.92C126.995 143.013 127.262 143.887 127.795 144.54C128.342 145.18 129.068 145.5 129.975 145.5C130.562 145.5 131.075 145.36 131.515 145.08C131.968 144.8 132.322 144.393 132.575 143.86H136.795C136.448 145.473 135.675 146.753 134.475 147.7C133.275 148.633 131.795 149.1 130.035 149.1C128.648 149.1 127.422 148.8 126.355 148.2C125.288 147.587 124.462 146.74 123.875 145.66C123.302 144.567 123.015 143.32 123.015 141.92ZM138.011 143.38C138.011 142.22 138.218 141.207 138.631 140.34C139.058 139.473 139.631 138.807 140.351 138.34C141.085 137.873 141.898 137.64 142.791 137.64C143.565 137.64 144.231 137.793 144.791 138.1C145.351 138.407 145.785 138.82 146.091 139.34V137.78H150.011V149H146.091V147.44C145.785 147.96 145.345 148.373 144.771 148.68C144.211 148.987 143.551 149.14 142.791 149.14C141.898 149.14 141.085 148.907 140.351 148.44C139.631 147.973 139.058 147.307 138.631 146.44C138.218 145.56 138.011 144.54 138.011 143.38ZM146.091 143.38C146.091 142.66 145.891 142.093 145.491 141.68C145.105 141.267 144.625 141.06 144.051 141.06C143.465 141.06 142.978 141.267 142.591 141.68C142.205 142.08 142.011 142.647 142.011 143.38C142.011 144.1 142.205 144.673 142.591 145.1C142.978 145.513 143.465 145.72 144.051 145.72C144.625 145.72 145.105 145.513 145.491 145.1C145.891 144.687 146.091 144.113 146.091 143.38ZM156.165 139.76C156.605 139.12 157.138 138.613 157.765 138.24C158.392 137.867 159.065 137.68 159.785 137.68V141.86H158.685C157.832 141.86 157.198 142.027 156.785 142.36C156.372 142.693 156.165 143.273 156.165 144.1V149H152.245V137.78H156.165V139.76ZM171.91 143.26C171.91 143.567 171.89 143.873 171.85 144.18H164.43C164.47 144.793 164.637 145.253 164.93 145.56C165.237 145.853 165.624 146 166.09 146C166.744 146 167.21 145.707 167.49 145.12H171.67C171.497 145.893 171.157 146.587 170.65 147.2C170.157 147.8 169.53 148.273 168.77 148.62C168.01 148.967 167.17 149.14 166.25 149.14C165.144 149.14 164.157 148.907 163.29 148.44C162.437 147.973 161.764 147.307 161.27 146.44C160.79 145.573 160.55 144.553 160.55 143.38C160.55 142.207 160.79 141.193 161.27 140.34C161.75 139.473 162.417 138.807 163.27 138.34C164.137 137.873 165.13 137.64 166.25 137.64C167.357 137.64 168.337 137.867 169.19 138.32C170.044 138.773 170.71 139.427 171.19 140.28C171.67 141.12 171.91 142.113 171.91 143.26ZM167.91 142.28C167.91 141.8 167.75 141.427 167.43 141.16C167.11 140.88 166.71 140.74 166.23 140.74C165.75 140.74 165.357 140.873 165.05 141.14C164.744 141.393 164.544 141.773 164.45 142.28H167.91Z" fill="#14684E"/>
<path d="M90.9719 173H89.2926L92.3501 164.315H94.2924L97.3541 173H95.6748L93.3552 166.096H93.2873L90.9719 173ZM91.027 169.595H95.607V170.858H91.027V169.595ZM106.566 173.127C105.916 173.127 105.358 172.984 104.891 172.699C104.428 172.413 104.07 172.019 103.818 171.516C103.57 171.01 103.445 170.427 103.445 169.769C103.445 169.107 103.572 168.523 103.827 168.017C104.081 167.508 104.44 167.113 104.904 166.83C105.371 166.544 105.922 166.402 106.558 166.402C107.087 166.402 107.554 166.499 107.962 166.694C108.371 166.886 108.698 167.159 108.941 167.513C109.184 167.863 109.323 168.273 109.357 168.742H107.889C107.83 168.429 107.689 168.167 107.465 167.958C107.245 167.746 106.949 167.64 106.579 167.64C106.265 167.64 105.99 167.725 105.752 167.894C105.515 168.061 105.33 168.301 105.197 168.615C105.067 168.929 105.002 169.305 105.002 169.743C105.002 170.187 105.067 170.569 105.197 170.888C105.327 171.205 105.509 171.449 105.744 171.622C105.981 171.791 106.26 171.876 106.579 171.876C106.805 171.876 107.007 171.834 107.186 171.749C107.366 171.661 107.518 171.536 107.639 171.372C107.761 171.208 107.844 171.008 107.889 170.774H109.357C109.32 171.234 109.184 171.643 108.95 171.999C108.715 172.353 108.396 172.63 107.991 172.83C107.587 173.028 107.112 173.127 106.566 173.127ZM118.952 173.127C118.301 173.127 117.743 172.984 117.277 172.699C116.813 172.413 116.455 172.019 116.204 171.516C115.955 171.01 115.831 170.427 115.831 169.769C115.831 169.107 115.958 168.523 116.212 168.017C116.467 167.508 116.826 167.113 117.289 166.83C117.756 166.544 118.307 166.402 118.943 166.402C119.472 166.402 119.94 166.499 120.347 166.694C120.757 166.886 121.083 167.159 121.327 167.513C121.57 167.863 121.708 168.273 121.742 168.742H120.275C120.215 168.429 120.074 168.167 119.851 167.958C119.63 167.746 119.335 167.64 118.964 167.64C118.651 167.64 118.375 167.725 118.138 167.894C117.9 168.061 117.715 168.301 117.582 168.615C117.452 168.929 117.387 169.305 117.387 169.743C117.387 170.187 117.452 170.569 117.582 170.888C117.712 171.205 117.894 171.449 118.129 171.622C118.367 171.791 118.645 171.876 118.964 171.876C119.191 171.876 119.393 171.834 119.571 171.749C119.752 171.661 119.903 171.536 120.025 171.372C120.146 171.208 120.23 171.008 120.275 170.774H121.742C121.705 171.234 121.57 171.643 121.335 171.999C121.1 172.353 120.781 172.63 120.377 172.83C119.972 173.028 119.497 173.127 118.952 173.127ZM131.337 173.127C130.701 173.127 130.15 172.987 129.683 172.707C129.217 172.428 128.855 172.036 128.598 171.533C128.343 171.03 128.216 170.441 128.216 169.769C128.216 169.096 128.343 168.506 128.598 168C128.855 167.494 129.217 167.101 129.683 166.821C130.15 166.541 130.701 166.402 131.337 166.402C131.973 166.402 132.524 166.541 132.991 166.821C133.457 167.101 133.818 167.494 134.072 168C134.33 168.506 134.458 169.096 134.458 169.769C134.458 170.441 134.33 171.03 134.072 171.533C133.818 172.036 133.457 172.428 132.991 172.707C132.524 172.987 131.973 173.127 131.337 173.127ZM131.346 171.897C131.69 171.897 131.979 171.803 132.211 171.613C132.442 171.421 132.615 171.164 132.728 170.841C132.844 170.519 132.902 170.16 132.902 169.764C132.902 169.366 132.844 169.005 132.728 168.683C132.615 168.358 132.442 168.099 132.211 167.907C131.979 167.715 131.69 167.619 131.346 167.619C130.992 167.619 130.698 167.715 130.463 167.907C130.232 168.099 130.058 168.358 129.942 168.683C129.829 169.005 129.772 169.366 129.772 169.764C129.772 170.16 129.829 170.519 129.942 170.841C130.058 171.164 130.232 171.421 130.463 171.613C130.698 171.803 130.992 171.897 131.346 171.897ZM145.406 170.261V166.486H146.941V173H145.453V171.842H145.385C145.238 172.207 144.996 172.505 144.66 172.737C144.326 172.969 143.915 173.085 143.426 173.085C142.999 173.085 142.621 172.99 142.293 172.801C141.968 172.608 141.714 172.33 141.53 171.965C141.346 171.598 141.254 171.154 141.254 170.634V166.486H142.789V170.396C142.789 170.809 142.903 171.137 143.129 171.38C143.355 171.623 143.652 171.745 144.019 171.745C144.245 171.745 144.465 171.69 144.677 171.579C144.889 171.469 145.062 171.305 145.198 171.087C145.337 170.867 145.406 170.591 145.406 170.261ZM155.548 169.183V173H154.013V166.486H155.48V167.593H155.556C155.706 167.228 155.945 166.939 156.273 166.724C156.604 166.509 157.012 166.402 157.499 166.402C157.948 166.402 158.34 166.498 158.673 166.69C159.01 166.882 159.27 167.161 159.454 167.525C159.64 167.89 159.732 168.332 159.729 168.853V173H158.194V169.09C158.194 168.655 158.081 168.314 157.855 168.068C157.632 167.822 157.322 167.699 156.926 167.699C156.658 167.699 156.419 167.759 156.21 167.877C156.003 167.993 155.841 168.161 155.722 168.382C155.606 168.602 155.548 168.87 155.548 169.183ZM170.036 166.486V167.674H166.291V166.486H170.036ZM167.216 164.926H168.751V171.041C168.751 171.247 168.782 171.406 168.844 171.516C168.909 171.623 168.994 171.697 169.098 171.736C169.203 171.776 169.319 171.796 169.446 171.796C169.542 171.796 169.63 171.789 169.709 171.774C169.791 171.76 169.853 171.748 169.896 171.736L170.154 172.936C170.072 172.965 169.955 172.996 169.802 173.03C169.653 173.064 169.469 173.083 169.251 173.089C168.867 173.1 168.52 173.042 168.212 172.915C167.904 172.785 167.659 172.584 167.479 172.313C167.3 172.042 167.213 171.702 167.216 171.295V164.926ZM176.813 173V166.486H178.348V173H176.813ZM177.585 165.562C177.341 165.562 177.132 165.481 176.957 165.32C176.782 165.156 176.694 164.96 176.694 164.731C176.694 164.499 176.782 164.302 176.957 164.141C177.132 163.977 177.341 163.895 177.585 163.895C177.83 163.895 178.04 163.977 178.212 164.141C178.387 164.302 178.475 164.499 178.475 164.731C178.475 164.96 178.387 165.156 178.212 165.32C178.04 165.481 177.83 165.562 177.585 165.562ZM186.955 169.183V173H185.42V166.486H186.887V167.593H186.963C187.113 167.228 187.352 166.939 187.68 166.724C188.011 166.509 188.419 166.402 188.905 166.402C189.355 166.402 189.746 166.498 190.08 166.69C190.417 166.882 190.677 167.161 190.86 167.525C191.047 167.89 191.139 168.332 191.136 168.853V173H189.601V169.09C189.601 168.655 189.488 168.314 189.262 168.068C189.038 167.822 188.729 167.699 188.333 167.699C188.064 167.699 187.825 167.759 187.616 167.877C187.41 167.993 187.247 168.161 187.129 168.382C187.013 168.602 186.955 168.87 186.955 169.183ZM201.023 175.578C200.471 175.578 199.998 175.503 199.602 175.354C199.206 175.207 198.888 175.009 198.648 174.76C198.407 174.511 198.241 174.235 198.147 173.933L199.53 173.598C199.592 173.725 199.683 173.851 199.801 173.975C199.92 174.103 200.08 174.207 200.28 174.289C200.484 174.374 200.74 174.416 201.048 174.416C201.483 174.416 201.844 174.31 202.129 174.098C202.415 173.889 202.558 173.544 202.558 173.064V171.83H202.481C202.402 171.988 202.286 172.15 202.134 172.317C201.984 172.484 201.784 172.624 201.536 172.737C201.29 172.85 200.98 172.907 200.607 172.907C200.107 172.907 199.653 172.789 199.246 172.555C198.841 172.317 198.519 171.964 198.279 171.495C198.041 171.022 197.923 170.432 197.923 169.722C197.923 169.007 198.041 168.403 198.279 167.911C198.519 167.416 198.843 167.042 199.25 166.787C199.657 166.53 200.111 166.402 200.611 166.402C200.993 166.402 201.307 166.467 201.553 166.597C201.801 166.724 201.999 166.878 202.146 167.059C202.293 167.237 202.405 167.405 202.481 167.563H202.566V166.486H204.08V173.106C204.08 173.663 203.947 174.124 203.681 174.488C203.416 174.853 203.052 175.126 202.592 175.307C202.131 175.488 201.608 175.578 201.023 175.578ZM201.035 171.702C201.36 171.702 201.637 171.623 201.866 171.465C202.095 171.307 202.269 171.079 202.388 170.782C202.507 170.485 202.566 170.129 202.566 169.713C202.566 169.304 202.507 168.945 202.388 168.636C202.272 168.328 202.1 168.089 201.871 167.92C201.645 167.747 201.366 167.661 201.035 167.661C200.693 167.661 200.408 167.75 200.179 167.928C199.95 168.106 199.777 168.351 199.661 168.662C199.545 168.97 199.487 169.321 199.487 169.713C199.487 170.112 199.545 170.461 199.661 170.761C199.78 171.058 199.954 171.29 200.183 171.456C200.415 171.62 200.699 171.702 201.035 171.702Z" fill="#14684E" fill-opacity="0.88"/>
</g>
<defs>
<clipPath id="clip0_2293_13">
<rect width="255" height="213" fill="white"/>
</clipPath>
</defs>
</svg>
