<svg width="513" height="213" viewBox="0 0 513 213" fill="none" xmlns="http://www.w3.org/2000/svg">
<g clip-path="url(#clip0_2287_59)">
<rect width="513" height="213" fill="#3D3B41"/>
<path d="M163.267 164.802V168.472H158.844V181.388H154.233V168.472H149.857V164.802H163.267ZM173.654 168.072C175.16 168.072 176.352 168.582 177.23 169.602C178.124 170.605 178.571 171.97 178.571 173.695V181.388H173.96V174.307C173.96 173.554 173.764 172.966 173.372 172.542C172.979 172.103 172.454 171.884 171.795 171.884C171.105 171.884 170.564 172.103 170.172 172.542C169.78 172.966 169.584 173.554 169.584 174.307V181.388H164.973V163.979H169.584V170.072C169.992 169.476 170.541 168.998 171.231 168.637C171.937 168.261 172.744 168.072 173.654 168.072ZM185.712 170.519C186.23 169.766 186.857 169.17 187.594 168.731C188.331 168.292 189.123 168.072 189.97 168.072V172.989H188.676C187.673 172.989 186.928 173.185 186.441 173.578C185.955 173.97 185.712 174.652 185.712 175.624V181.388H181.101V168.19H185.712V170.519ZM204.233 174.636C204.233 174.997 204.21 175.358 204.163 175.718H195.435C195.482 176.44 195.678 176.981 196.023 177.342C196.383 177.687 196.838 177.859 197.387 177.859C198.156 177.859 198.705 177.514 199.034 176.824H203.951C203.747 177.734 203.347 178.549 202.751 179.271C202.171 179.977 201.434 180.533 200.54 180.941C199.646 181.349 198.658 181.553 197.575 181.553C196.274 181.553 195.113 181.278 194.094 180.729C193.09 180.181 192.298 179.396 191.717 178.377C191.153 177.357 190.871 176.158 190.871 174.777C190.871 173.397 191.153 172.205 191.717 171.201C192.282 170.182 193.066 169.398 194.07 168.849C195.09 168.3 196.258 168.025 197.575 168.025C198.877 168.025 200.03 168.292 201.034 168.825C202.038 169.359 202.822 170.127 203.386 171.131C203.951 172.119 204.233 173.287 204.233 174.636ZM199.528 173.483C199.528 172.919 199.34 172.48 198.963 172.166C198.587 171.837 198.117 171.672 197.552 171.672C196.987 171.672 196.525 171.829 196.164 172.142C195.803 172.44 195.568 172.887 195.458 173.483H199.528ZM205.368 174.777C205.368 173.413 205.611 172.221 206.097 171.201C206.599 170.182 207.273 169.398 208.12 168.849C208.983 168.3 209.939 168.025 210.99 168.025C211.9 168.025 212.684 168.206 213.343 168.567C214.002 168.927 214.511 169.413 214.872 170.025V168.19H219.483V181.388H214.872V179.553C214.511 180.165 213.994 180.651 213.319 181.012C212.661 181.372 211.884 181.553 210.99 181.553C209.939 181.553 208.983 181.278 208.12 180.729C207.273 180.181 206.599 179.396 206.097 178.377C205.611 177.342 205.368 176.142 205.368 174.777ZM214.872 174.777C214.872 173.93 214.637 173.264 214.166 172.778C213.711 172.291 213.147 172.048 212.472 172.048C211.782 172.048 211.21 172.291 210.755 172.778C210.3 173.248 210.073 173.915 210.073 174.777C210.073 175.624 210.3 176.299 210.755 176.801C211.21 177.287 211.782 177.53 212.472 177.53C213.147 177.53 213.711 177.287 214.166 176.801C214.637 176.314 214.872 175.64 214.872 174.777ZM221.358 174.777C221.358 173.413 221.601 172.221 222.087 171.201C222.589 170.182 223.271 169.398 224.134 168.849C224.997 168.3 225.953 168.025 227.004 168.025C227.851 168.025 228.604 168.206 229.263 168.567C229.937 168.912 230.462 169.39 230.839 170.002V163.979H235.473V181.388H230.839V179.553C230.478 180.165 229.968 180.651 229.31 181.012C228.651 181.372 227.875 181.553 226.981 181.553C225.93 181.553 224.973 181.278 224.11 180.729C223.263 180.181 222.589 179.396 222.087 178.377C221.601 177.342 221.358 176.142 221.358 174.777ZM230.862 174.777C230.862 173.93 230.627 173.264 230.157 172.778C229.702 172.291 229.137 172.048 228.463 172.048C227.773 172.048 227.2 172.291 226.745 172.778C226.29 173.248 226.063 173.915 226.063 174.777C226.063 175.624 226.29 176.299 226.745 176.801C227.2 177.287 227.773 177.53 228.463 177.53C229.137 177.53 229.702 177.287 230.157 176.801C230.627 176.314 230.862 175.64 230.862 174.777ZM242.039 173.06C242.039 171.429 242.377 169.978 243.051 168.708C243.741 167.422 244.714 166.426 245.968 165.72C247.223 164.998 248.666 164.638 250.297 164.638C252.367 164.638 254.108 165.194 255.52 166.308C256.931 167.406 257.841 168.904 258.249 170.801H253.285C252.987 170.174 252.571 169.696 252.038 169.366C251.52 169.037 250.917 168.872 250.226 168.872C249.16 168.872 248.305 169.257 247.662 170.025C247.035 170.778 246.721 171.79 246.721 173.06C246.721 174.346 247.035 175.373 247.662 176.142C248.305 176.895 249.16 177.271 250.226 177.271C250.917 177.271 251.52 177.106 252.038 176.777C252.571 176.448 252.987 175.969 253.285 175.342H258.249C257.841 177.24 256.931 178.745 255.52 179.859C254.108 180.957 252.367 181.506 250.297 181.506C248.666 181.506 247.223 181.153 245.968 180.447C244.714 179.726 243.741 178.73 243.051 177.459C242.377 176.173 242.039 174.707 242.039 173.06ZM265.043 163.979V181.388H260.432V163.979H265.043ZM273.81 181.553C272.492 181.553 271.308 181.278 270.257 180.729C269.222 180.181 268.407 179.396 267.811 178.377C267.215 177.357 266.917 176.158 266.917 174.777C266.917 173.413 267.215 172.221 267.811 171.201C268.422 170.182 269.246 169.398 270.281 168.849C271.332 168.3 272.516 168.025 273.833 168.025C275.151 168.025 276.327 168.3 277.362 168.849C278.413 169.398 279.236 170.182 279.832 171.201C280.444 172.221 280.75 173.413 280.75 174.777C280.75 176.142 280.444 177.342 279.832 178.377C279.236 179.396 278.413 180.181 277.362 180.729C276.311 181.278 275.127 181.553 273.81 181.553ZM273.81 177.553C274.453 177.553 274.986 177.318 275.409 176.848C275.849 176.361 276.068 175.671 276.068 174.777C276.068 173.883 275.849 173.201 275.409 172.731C274.986 172.26 274.461 172.025 273.833 172.025C273.206 172.025 272.68 172.26 272.257 172.731C271.833 173.201 271.622 173.883 271.622 174.777C271.622 175.687 271.826 176.377 272.233 176.848C272.641 177.318 273.167 177.553 273.81 177.553ZM291.26 168.072C292.781 168.072 293.989 168.582 294.883 169.602C295.777 170.605 296.224 171.97 296.224 173.695V181.388H291.613V174.307C291.613 173.554 291.417 172.966 291.025 172.542C290.633 172.103 290.107 171.884 289.448 171.884C288.758 171.884 288.217 172.103 287.825 172.542C287.433 172.966 287.237 173.554 287.237 174.307V181.388H282.626V168.19H287.237V170.072C287.645 169.476 288.194 168.998 288.884 168.637C289.574 168.261 290.366 168.072 291.26 168.072ZM311.364 174.636C311.364 174.997 311.34 175.358 311.293 175.718H302.565C302.612 176.44 302.808 176.981 303.153 177.342C303.514 177.687 303.969 177.859 304.518 177.859C305.286 177.859 305.835 177.514 306.165 176.824H311.082C310.878 177.734 310.478 178.549 309.882 179.271C309.302 179.977 308.564 180.533 307.67 180.941C306.776 181.349 305.788 181.553 304.706 181.553C303.404 181.553 302.244 181.278 301.224 180.729C300.22 180.181 299.428 179.396 298.848 178.377C298.284 177.357 298.001 176.158 298.001 174.777C298.001 173.397 298.284 172.205 298.848 171.201C299.413 170.182 300.197 169.398 301.201 168.849C302.22 168.3 303.389 168.025 304.706 168.025C306.008 168.025 307.161 168.292 308.164 168.825C309.168 169.359 309.952 170.127 310.517 171.131C311.082 172.119 311.364 173.287 311.364 174.636ZM306.659 173.483C306.659 172.919 306.471 172.48 306.094 172.166C305.718 171.837 305.247 171.672 304.683 171.672C304.118 171.672 303.655 171.829 303.295 172.142C302.934 172.44 302.699 172.887 302.589 173.483H306.659Z" fill="white"/>
<path opacity="0.1" d="M37.35 86.6803V100.432H22.6605V142H5.31451V100.432H-9.21865V86.6803H37.35ZM72.918 97.6192C77.9707 97.6192 81.9035 99.3121 84.7164 102.698C87.5813 106.084 89.0138 110.668 89.0138 116.45V142H71.7459V118.638C71.7459 116.554 71.1729 114.913 70.027 113.715C68.9331 112.465 67.4485 111.84 65.5733 111.84C63.6459 111.84 62.1353 112.465 61.0414 113.715C59.9475 114.913 59.4006 116.554 59.4006 118.638V142H42.0545V84.1799H59.4006V104.651C60.7549 102.568 62.552 100.875 64.7919 99.5726C67.0839 98.2703 69.7926 97.6192 72.918 97.6192ZM113.882 106.058C115.653 103.505 117.814 101.474 120.367 99.9632C122.919 98.4005 125.576 97.6192 128.337 97.6192V116.137H123.414C120.132 116.137 117.71 116.71 116.148 117.856C114.637 119.002 113.882 121.034 113.882 123.951V142H96.5356V97.9317H113.882V106.058ZM175.671 119.575C175.671 120.773 175.593 121.919 175.436 123.013H147.542C147.802 126.816 149.391 128.717 152.308 128.717C154.183 128.717 155.538 127.858 156.371 126.139H174.733C174.108 129.264 172.78 132.077 170.748 134.577C168.769 137.025 166.242 138.979 163.169 140.437C160.148 141.844 156.814 142.547 153.168 142.547C148.792 142.547 144.885 141.635 141.447 139.812C138.062 137.989 135.405 135.385 133.478 131.999C131.602 128.561 130.665 124.55 130.665 119.966C130.665 115.382 131.602 111.397 133.478 108.011C135.405 104.573 138.062 101.943 141.447 100.12C144.885 98.2964 148.792 97.3848 153.168 97.3848C157.543 97.3848 161.424 98.2964 164.81 100.12C168.248 101.891 170.904 104.443 172.78 107.777C174.707 111.111 175.671 115.043 175.671 119.575ZM158.09 115.434C158.09 113.975 157.621 112.882 156.684 112.152C155.746 111.371 154.574 110.98 153.168 110.98C150.094 110.98 148.297 112.465 147.776 115.434H158.09ZM178.813 119.966C178.813 115.33 179.594 111.319 181.157 107.933C182.771 104.495 184.959 101.891 187.72 100.12C190.481 98.2964 193.58 97.3848 197.018 97.3848C199.883 97.3848 202.357 97.9838 204.441 99.1819C206.525 100.328 208.113 101.917 209.207 103.948V97.9317H226.475V142H209.207V135.984C208.113 138.015 206.525 139.63 204.441 140.828C202.357 141.974 199.883 142.547 197.018 142.547C193.58 142.547 190.481 141.661 187.72 139.89C184.959 138.067 182.771 135.463 181.157 132.077C179.594 128.639 178.813 124.602 178.813 119.966ZM209.207 119.966C209.207 117.622 208.608 115.799 207.41 114.496C206.212 113.194 204.675 112.543 202.8 112.543C200.925 112.543 199.388 113.194 198.19 114.496C196.992 115.799 196.393 117.622 196.393 119.966C196.393 122.31 196.992 124.133 198.19 125.435C199.388 126.738 200.925 127.389 202.8 127.389C204.675 127.389 206.212 126.738 207.41 125.435C208.608 124.133 209.207 122.31 209.207 119.966ZM231.92 119.966C231.92 115.33 232.701 111.319 234.264 107.933C235.879 104.495 238.067 101.891 240.828 100.12C243.588 98.2964 246.688 97.3848 250.126 97.3848C252.991 97.3848 255.439 97.9838 257.47 99.1819C259.554 100.328 261.143 101.917 262.237 103.948V84.1799H279.583V142H262.237V135.984C261.143 138.015 259.554 139.63 257.47 140.828C255.439 141.974 252.991 142.547 250.126 142.547C246.688 142.547 243.588 141.661 240.828 139.89C238.067 138.067 235.879 135.463 234.264 132.077C232.701 128.639 231.92 124.602 231.92 119.966ZM262.315 119.966C262.315 117.622 261.716 115.799 260.518 114.496C259.32 113.194 257.783 112.543 255.908 112.543C254.032 112.543 252.496 113.194 251.298 114.496C250.1 115.799 249.501 117.622 249.501 119.966C249.501 122.31 250.1 124.133 251.298 125.435C252.496 126.738 254.032 127.389 255.908 127.389C257.783 127.389 259.32 126.738 260.518 125.435C261.716 124.133 262.315 122.31 262.315 119.966ZM298.305 119.966C298.305 115.382 299.242 111.397 301.117 108.011C303.045 104.573 305.701 101.943 309.087 100.12C312.525 98.2964 316.432 97.3848 320.807 97.3848C326.537 97.3848 331.356 98.9996 335.262 102.229C339.221 105.459 341.722 109.939 342.763 115.668H324.402C323.725 113.376 322.396 112.23 320.417 112.23C319.01 112.23 317.89 112.882 317.057 114.184C316.276 115.486 315.885 117.413 315.885 119.966C315.885 122.518 316.276 124.446 317.057 125.748C317.89 127.05 319.01 127.701 320.417 127.701C322.396 127.701 323.725 126.555 324.402 124.263H342.763C341.722 129.993 339.221 134.473 335.262 137.703C331.356 140.932 326.537 142.547 320.807 142.547C316.432 142.547 312.525 141.635 309.087 139.812C305.701 137.989 303.045 135.385 301.117 131.999C299.242 128.561 298.305 124.55 298.305 119.966ZM365.608 84.1799V142H348.262V84.1799H365.608ZM394.383 142.547C389.955 142.547 385.97 141.635 382.428 139.812C378.886 137.989 376.099 135.385 374.068 131.999C372.088 128.561 371.099 124.55 371.099 119.966C371.099 115.382 372.088 111.397 374.068 108.011C376.099 104.573 378.886 101.943 382.428 100.12C385.97 98.2964 389.955 97.3848 394.383 97.3848C398.81 97.3848 402.795 98.2964 406.337 100.12C409.88 101.943 412.64 104.573 414.62 108.011C416.651 111.397 417.667 115.382 417.667 119.966C417.667 124.55 416.651 128.561 414.62 131.999C412.64 135.385 409.88 137.989 406.337 139.812C402.795 141.635 398.81 142.547 394.383 142.547ZM394.383 127.545C395.998 127.545 397.352 126.92 398.446 125.67C399.54 124.367 400.087 122.466 400.087 119.966C400.087 117.466 399.54 115.59 398.446 114.34C397.352 113.038 395.998 112.387 394.383 112.387C392.768 112.387 391.414 113.038 390.32 114.34C389.226 115.59 388.679 117.466 388.679 119.966C388.679 122.466 389.2 124.367 390.242 125.67C391.336 126.92 392.716 127.545 394.383 127.545ZM453.98 97.6192C459.033 97.6192 462.965 99.3121 465.778 102.698C468.643 106.084 470.076 110.668 470.076 116.45V142H452.808V118.638C452.808 116.554 452.235 114.913 451.089 113.715C449.995 112.465 448.51 111.84 446.635 111.84C444.708 111.84 443.197 112.465 442.103 113.715C441.009 114.913 440.462 116.554 440.462 118.638V142H423.116V97.9317H440.462V104.651C441.817 102.568 443.614 100.875 445.854 99.5726C448.146 98.2703 450.854 97.6192 453.98 97.6192ZM520.259 119.575C520.259 120.773 520.181 121.919 520.025 123.013H492.131C492.391 126.816 493.98 128.717 496.897 128.717C498.772 128.717 500.126 127.858 500.96 126.139H519.322C518.697 129.264 517.368 132.077 515.337 134.577C513.357 137.025 510.831 138.979 507.758 140.437C504.736 141.844 501.403 142.547 497.756 142.547C493.381 142.547 489.474 141.635 486.036 139.812C482.65 137.989 479.994 135.385 478.066 131.999C476.191 128.561 475.253 124.55 475.253 119.966C475.253 115.382 476.191 111.397 478.066 108.011C479.994 104.573 482.65 101.943 486.036 100.12C489.474 98.2964 493.381 97.3848 497.756 97.3848C502.132 97.3848 506.013 98.2964 509.398 100.12C512.836 101.891 515.493 104.443 517.368 107.777C519.296 111.111 520.259 115.043 520.259 119.575ZM502.679 115.434C502.679 113.975 502.21 112.882 501.272 112.152C500.335 111.371 499.163 110.98 497.756 110.98C494.683 110.98 492.886 112.465 492.365 115.434H502.679Z" fill="white"/>
<rect opacity="0.2" x="53.5282" y="120.3" width="394.067" height="3.16944" stroke="#3D3B40" stroke-width="1.05648"/>
<g clip-path="url(#clip1_2287_59)">
<path d="M135.177 35.6689C134.883 35.6557 134.586 35.6485 134.289 35.6475C130.416 27.7569 124.036 25.0096 116.605 28.1137C116.571 28.1277 116.538 28.1419 116.505 28.1562C112.072 30.0411 109.19 33.5008 108.385 37.9086L113.65 38.9712C114.251 35.6787 116.678 33.9992 118.637 33.1661C118.66 33.1565 118.683 33.1469 118.705 33.1375C121.152 32.1155 123.295 32.0419 125.075 32.9187C126.37 33.5571 127.542 34.7023 128.576 36.3368C126.257 36.8891 123.869 37.771 121.429 38.978C114.556 42.38 111.774 48.4154 114.506 53.9959C115.892 56.8266 118.394 58.7047 121.552 59.2839C124.222 59.7735 127.193 59.3047 129.918 57.9659C133.517 56.1969 135.81 53.5617 136.733 50.1335C137.435 47.53 137.328 44.5882 136.4 41.2187C138.607 41.5317 140.501 42.3729 141.933 43.7437C144.367 46.0739 146.43 50.7267 144.232 56.1697C142.306 60.9382 138.897 64.0966 132.834 66.7276C126.066 69.5466 120.044 69.5528 114.933 66.7462C110.147 64.1182 106.116 59.097 102.952 51.8219C99.9068 44.4958 99.0867 38.1091 100.514 32.839C102.038 27.2111 106.22 22.8777 112.946 19.9585C119.763 17.1192 125.878 17.0857 131.125 19.8585C133.698 21.2184 136.082 23.2902 138.217 25.9803L142.452 22.675C139.839 19.3571 136.864 16.8061 133.545 15.0523C126.819 11.4973 119.177 11.4598 110.831 14.9407L110.798 14.9549C102.518 18.5437 97.3207 24.0537 95.3498 31.3316C93.596 37.8079 94.4983 45.3979 98.0317 53.8905L98.0399 53.9105L98.0486 53.9304C101.714 62.3666 106.555 68.282 112.436 71.5116C119.045 75.1406 126.62 75.2196 134.948 71.7457L134.982 71.7315C142.343 68.5407 146.725 64.3948 149.19 58.2884C152.417 50.2995 149.261 43.3474 145.578 39.8215C142.937 37.2934 139.34 35.8573 135.177 35.6689ZM127.527 53.0745C124.513 54.5616 120.715 54.5398 119.294 51.6383C118.241 49.4869 118.88 46.3147 123.833 43.863C124.4 43.5822 124.964 43.3232 125.524 43.0848C127.369 42.3005 129.17 41.746 130.885 41.4219C133.407 48.9772 130.479 51.6229 127.527 53.0745Z" fill="white"/>
</g>
<g clip-path="url(#clip2_2287_59)">
<path d="M25.1774 192.669C24.8829 192.656 24.5864 192.648 24.2888 192.647C20.4157 184.757 14.0359 182.01 6.60514 185.114C6.57148 185.128 6.53809 185.142 6.50452 185.156C2.072 187.041 -0.809886 190.501 -1.61481 194.909L3.64973 195.971C4.25114 192.679 6.67818 190.999 8.63729 190.166C8.65991 190.157 8.68263 190.147 8.70511 190.138C11.1518 189.115 13.2947 189.042 15.0748 189.919C16.3704 190.557 17.5423 191.702 18.5765 193.337C16.2567 193.889 13.869 194.771 11.4288 195.978C4.55572 199.38 1.77361 205.415 4.50593 210.996C5.89196 213.827 8.39445 215.705 11.5521 216.284C14.2217 216.773 17.1926 216.305 19.9181 214.966C23.517 213.197 25.8098 210.562 26.7333 207.133C27.4348 204.53 27.3276 201.588 26.3998 198.219C28.6065 198.532 30.5011 199.373 31.9328 200.744C34.3669 203.074 36.4296 207.727 34.232 213.17C32.3063 217.938 28.8972 221.097 22.8341 223.728C16.0662 226.547 10.0437 226.553 4.93284 223.746C0.147009 221.118 -3.88404 216.097 -7.04849 208.822C-10.0932 201.496 -10.9133 195.109 -9.48611 189.839C-7.96205 184.211 -3.7798 179.878 2.94554 176.959C9.76263 174.119 15.8785 174.086 21.1249 176.859C23.6976 178.218 26.0822 180.29 28.2174 182.98L32.4516 179.675C29.8392 176.357 26.8637 173.806 23.5452 172.052C16.8191 168.497 9.17711 168.46 0.831378 171.941L0.798072 171.955C-7.48173 175.544 -12.6793 181.054 -14.6502 188.332C-16.404 194.808 -15.5017 202.398 -11.9683 210.89L-11.9601 210.911L-11.9514 210.93C-8.28576 219.367 -3.44496 225.282 2.43628 228.512C9.04533 232.141 16.6196 232.22 24.9483 228.746L24.9816 228.731C32.3427 225.541 36.7248 221.395 39.1905 215.288C42.4165 207.3 39.2607 200.347 35.5784 196.822C32.9371 194.293 29.3405 192.857 25.1774 192.669ZM17.5266 210.075C14.5125 211.562 10.715 211.54 9.29434 208.638C8.24102 206.487 8.88031 203.315 13.8332 200.863C14.4004 200.582 14.964 200.323 15.5245 200.085C17.3687 199.301 19.1702 198.746 20.8846 198.422C23.4066 205.977 20.4794 208.623 17.5266 210.075Z" fill="white"/>
</g>
<g opacity="0.1" clip-path="url(#clip3_2287_59)">
<path d="M316.458 10.8454C316.332 10.8803 316.206 10.918 316.081 10.9584C313.368 8.17051 310.306 7.89087 307.606 10.2175C307.594 10.228 307.582 10.2386 307.569 10.2492C305.963 11.651 305.226 13.5025 305.493 15.4676L307.854 15.1916C307.655 13.7237 308.445 12.6837 309.155 12.0641C309.163 12.057 309.171 12.0498 309.179 12.0428C310.068 11.2767 310.96 10.9514 311.829 11.0758C312.462 11.1665 313.113 11.4874 313.772 12.033C312.872 12.584 311.988 13.283 311.128 14.126C308.703 16.5013 308.361 19.4228 310.278 21.3954C311.249 22.396 312.56 22.8425 313.968 22.6526C315.159 22.4919 316.344 21.8866 317.307 20.9489C318.579 19.7104 319.181 18.2867 319.099 16.7175C319.037 15.5258 318.587 14.3028 317.734 13.0125C318.706 12.8411 319.618 12.9348 320.409 13.3149C321.753 13.961 323.26 15.6353 323.083 18.2273C322.928 20.498 321.927 22.2951 319.738 24.2348C317.277 26.3505 314.744 27.1802 312.208 26.7014C309.834 26.253 307.448 24.694 305.118 22.0677C302.83 19.4035 301.608 16.829 301.485 14.4157C301.353 11.8385 302.517 9.44081 304.946 7.2889C307.424 5.15799 309.993 4.30388 312.581 4.74994C313.85 4.96874 315.138 5.51291 316.406 6.35147L317.734 4.37925C316.179 3.34211 314.576 2.67745 312.939 2.39536C309.621 1.82344 306.401 2.85729 303.367 5.46808L303.355 5.47861C300.365 8.12581 298.935 11.1579 299.105 14.4907C299.257 17.4565 300.679 20.5259 303.332 23.6138L303.338 23.6211L303.344 23.6283C306.045 26.6742 308.894 28.4982 311.812 29.0492C315.092 29.6684 318.289 28.6613 321.316 26.0558L321.328 26.0452C323.987 23.6917 325.262 21.3455 325.46 18.4376C325.72 14.6333 323.438 12.1417 321.404 11.164C319.946 10.4631 318.235 10.3528 316.458 10.8454ZM315.629 19.2194C314.565 20.2591 312.965 20.7715 311.968 19.7458C311.23 18.9853 311.063 17.5628 312.81 15.8511C313.01 15.655 313.212 15.4686 313.415 15.2913C314.083 14.7081 314.765 14.2273 315.442 13.8555C317.54 16.6879 316.672 18.2031 315.629 19.2194Z" fill="white"/>
</g>
<g opacity="0.1" clip-path="url(#clip4_2287_59)">
<path d="M79.7776 28.5163C79.6244 28.4694 79.4693 28.4255 79.3127 28.3846C78.3429 23.7059 75.3566 21.3952 71.0242 22.0225C71.0046 22.0253 70.9851 22.0283 70.9655 22.0312C68.3766 22.423 66.3907 23.8538 65.3698 26.0651L67.9972 27.3379C68.7599 25.6861 70.2652 25.1308 71.4094 24.9576C71.4226 24.9556 71.4359 24.9536 71.449 24.9518C72.8755 24.7452 74.0136 24.9969 74.8319 25.6996C75.4274 26.2112 75.8892 26.9729 76.2122 27.9735C74.9161 27.9499 73.5397 28.0907 72.0915 28.3954C68.0123 29.2551 65.7299 32.0554 66.4122 35.3634C66.7583 37.0414 67.8213 38.3692 69.4051 39.102C70.7441 39.7214 72.3716 39.8772 73.9878 39.5416C76.1221 39.098 77.6862 38.0214 78.6369 36.3418C79.3589 35.0663 79.7011 33.5031 79.6692 31.6035C80.7885 32.0673 81.6719 32.7668 82.2398 33.6825C83.2055 35.239 83.661 37.9679 81.7666 40.5355C80.1067 42.7849 77.8841 43.9857 74.3358 44.5493C70.3909 45.1163 67.2196 44.3035 64.9094 42.1335C62.746 40.1016 61.3042 36.912 60.6241 32.6534C60.0139 28.3841 60.4475 24.9108 61.9129 22.3298C63.4778 19.5735 66.2666 17.859 70.2026 17.2335C74.1761 16.6624 77.4003 17.4734 79.7865 19.644C80.9566 20.7085 81.9312 22.1223 82.6908 23.8277L85.3676 22.6614C84.4419 20.5608 83.2212 18.8147 81.7118 17.4418C78.6526 14.6589 74.6347 13.6038 69.7695 14.3054L69.7501 14.3084C64.905 15.0758 61.4223 17.2722 59.3986 20.8365C57.5978 24.0083 57.0444 28.1262 57.7538 33.0758L57.7555 33.0874L57.7573 33.0991C58.544 38.0369 60.2909 41.8069 62.9494 44.3039C65.9369 47.1099 69.9136 48.1777 74.7688 47.4774L74.7883 47.4744C79.0958 46.7921 81.9644 45.2033 84.0898 42.3227C86.8706 38.5542 86.1512 34.4667 84.6904 32.1116C83.6425 30.4229 81.9437 29.1795 79.7776 28.5163ZM73.3916 36.6426C71.6034 37.0171 69.6072 36.4911 69.2524 34.7711C68.9894 33.4958 69.7558 31.9124 72.6954 31.2929C73.032 31.2219 73.3638 31.1619 73.6912 31.1124C74.7683 30.9494 75.7918 30.9016 76.7382 30.9632C77.0422 35.2823 75.1427 36.2785 73.3916 36.6426Z" fill="white"/>
</g>
<g clip-path="url(#clip5_2287_59)">
<path d="M136.673 172.409C136.57 172.37 136.466 172.331 136.361 172.296C135.931 169.033 133.997 167.296 130.99 167.507C130.976 167.508 130.963 167.509 130.949 167.51C129.152 167.648 127.715 168.531 126.903 169.998L128.643 171.005C129.25 169.909 130.312 169.603 131.106 169.542C131.115 169.542 131.125 169.541 131.134 169.54C132.124 169.471 132.893 169.701 133.419 170.225C133.802 170.607 134.081 171.153 134.252 171.856C133.363 171.775 132.411 171.802 131.401 171.938C128.556 172.322 126.847 174.13 127.148 176.436C127.301 177.606 127.964 178.571 129.015 179.155C129.903 179.648 131.013 179.837 132.14 179.688C133.628 179.492 134.756 178.831 135.494 177.726C136.054 176.886 136.368 175.83 136.443 174.524C137.188 174.899 137.759 175.424 138.103 176.082C138.687 177.2 138.862 179.097 137.431 180.764C136.178 182.225 134.591 182.937 132.125 183.145C129.388 183.335 127.251 182.616 125.774 181.009C124.391 179.504 123.562 177.241 123.31 174.282C123.107 171.319 123.581 168.956 124.717 167.258C125.931 165.444 127.933 164.407 130.668 164.177C133.426 163.986 135.599 164.706 137.128 166.317C137.878 167.107 138.475 168.127 138.911 169.337L140.808 168.671C140.279 167.182 139.529 165.921 138.561 164.902C136.601 162.836 133.895 161.908 130.519 162.144L130.505 162.145C127.139 162.427 124.636 163.76 123.066 166.105C121.669 168.192 121.081 170.992 121.318 174.427L121.318 174.435L121.319 174.443C121.61 177.874 122.619 180.551 124.318 182.401C126.228 184.479 128.905 185.413 132.275 185.178L132.288 185.177C135.281 184.926 137.331 183.98 138.936 182.109C141.037 179.662 140.749 176.818 139.865 175.127C139.231 173.914 138.127 172.974 136.673 172.409ZM131.877 177.667C130.63 177.834 129.285 177.372 129.129 176.173C129.013 175.284 129.619 174.235 131.669 173.958C131.904 173.926 132.135 173.902 132.362 173.885C133.11 173.827 133.815 173.846 134.462 173.936C134.453 176.918 133.098 177.506 131.877 177.667Z" fill="white"/>
</g>
<g clip-path="url(#clip6_2287_59)">
<path d="M376.086 -1.73252C375.972 -1.77649 375.857 -1.81836 375.741 -1.85798C375.268 -5.45009 373.139 -7.36376 369.828 -7.13063C369.813 -7.12957 369.798 -7.12842 369.783 -7.12727C367.803 -6.97519 366.222 -6.00373 365.326 -4.38831L367.243 -3.27955C367.911 -4.48622 369.081 -4.82234 369.955 -4.88956C369.966 -4.89033 369.976 -4.89111 369.986 -4.89179C371.076 -4.96856 371.923 -4.7149 372.502 -4.13792C372.924 -3.71785 373.231 -3.11614 373.419 -2.3415C372.441 -2.43148 371.392 -2.4017 370.28 -2.25184C367.147 -1.82885 365.265 0.161717 365.597 2.70129C365.765 3.98948 366.495 5.05275 367.652 5.69509C368.63 6.23808 369.852 6.44649 371.093 6.28272C372.732 6.06607 373.975 5.33904 374.787 4.12179C375.404 3.1974 375.75 2.03434 375.832 0.596064C376.652 1.00911 377.281 1.5873 377.66 2.31136C378.303 3.54218 378.496 5.63121 376.92 7.46743C375.54 9.07605 373.792 9.86035 371.078 10.089C368.063 10.2981 365.71 9.50691 364.084 7.7373C362.561 6.08027 361.648 3.588 361.371 0.329648C361.147 -2.93284 361.668 -5.5353 362.92 -7.4055C364.257 -9.40273 366.462 -10.5441 369.473 -10.7979C372.51 -11.0085 374.903 -10.2157 376.586 -8.44142C377.412 -7.57131 378.07 -6.4479 378.55 -5.11591L380.639 -5.84886C380.056 -7.48894 379.23 -8.87736 378.165 -9.99962C376.006 -12.2744 373.027 -13.296 369.308 -13.0363L369.294 -13.0351C365.587 -12.7245 362.831 -11.2575 361.102 -8.67475C359.564 -6.37645 358.916 -3.29321 359.177 0.489244L359.177 0.498167L359.178 0.507076C359.498 4.28495 360.609 7.23315 362.481 9.26948C364.584 11.5577 367.531 12.5867 371.242 12.3274L371.257 12.3263C374.552 12.0501 376.81 11.0083 378.578 8.9483C380.891 6.25328 380.574 3.12218 379.601 1.2599C378.902 -0.0755312 377.687 -1.11038 376.086 -1.73252ZM370.804 4.05723C369.431 4.24085 367.95 3.73192 367.778 2.41149C367.65 1.43245 368.318 0.277751 370.575 -0.0271232C370.834 -0.0620531 371.088 -0.088948 371.338 -0.10818C372.162 -0.171456 372.939 -0.150642 373.651 -0.0513202C373.64 3.2318 372.148 3.87939 370.804 4.05723Z" fill="white"/>
</g>
<g clip-path="url(#clip7_2287_59)">
<path d="M377.266 208.002C377.009 208.062 376.751 208.127 376.494 208.198C371.252 202.322 365.085 201.488 359.421 205.955C359.395 205.976 359.37 205.996 359.344 206.016C355.973 208.71 354.319 212.39 354.686 216.387L359.485 216.036C359.211 213.05 360.901 211.017 362.391 209.826C362.408 209.812 362.425 209.798 362.442 209.785C364.308 208.314 366.139 207.734 367.886 208.062C369.158 208.301 370.445 209.007 371.731 210.168C369.862 211.203 368.014 212.539 366.199 214.169C361.088 218.759 360.14 224.637 363.842 228.795C365.72 230.903 368.331 231.921 371.195 231.661C373.617 231.44 376.068 230.32 378.097 228.509C380.776 226.116 382.12 223.29 382.092 220.109C382.07 217.694 381.269 215.181 379.657 212.497C381.637 212.236 383.474 212.505 385.04 213.343C387.701 214.768 390.601 218.286 390.016 223.512C389.503 228.09 387.321 231.637 382.723 235.367C377.562 239.429 372.367 240.885 367.281 239.694C362.518 238.579 357.831 235.217 353.348 229.701C348.957 224.113 346.711 218.799 346.673 213.908C346.633 208.685 349.199 203.938 354.299 199.8C359.498 195.708 364.767 194.206 369.962 195.336C372.509 195.889 375.066 197.103 377.556 198.91L380.414 195.038C377.36 192.804 374.179 191.32 370.893 190.605C364.233 189.158 357.629 190.966 351.266 195.979L351.241 195.999C344.961 201.09 341.802 207.096 341.854 213.851C341.901 219.862 344.507 226.194 349.601 232.671L349.613 232.686L349.625 232.701C354.82 239.098 360.421 243.037 366.274 244.407C372.851 245.947 379.406 244.191 385.756 239.188L385.781 239.168C391.365 234.642 394.148 230.009 394.805 224.146C395.665 216.476 391.267 211.237 387.241 209.081C384.353 207.536 380.903 207.162 377.266 208.002ZM374.856 224.864C372.613 226.873 369.331 227.769 367.406 225.607C365.979 224.004 365.767 221.113 369.45 217.805C369.872 217.426 370.296 217.067 370.722 216.726C372.125 215.605 373.546 214.693 374.947 214C378.943 219.912 377.054 222.9 374.856 224.864Z" fill="white"/>
</g>
<g clip-path="url(#clip8_2287_59)">
<path d="M332.709 56.2556C332.554 56.2915 332.399 56.3307 332.244 56.3733C329.089 52.8364 325.377 52.3342 321.967 55.0235C321.952 55.0357 321.936 55.0479 321.921 55.0602C319.892 56.6817 318.897 58.8964 319.117 61.3025L322.006 61.0913C321.841 59.294 322.858 58.0699 323.755 57.3532C323.765 57.3449 323.776 57.3366 323.786 57.3285C324.909 56.443 326.011 56.0942 327.063 56.2915C327.828 56.4354 328.603 56.8603 329.377 57.5593C328.252 58.1825 327.14 58.9866 326.047 59.9672C322.97 62.7305 322.4 66.2686 324.628 68.771C325.759 70.0404 327.331 70.6531 329.055 70.4963C330.512 70.3636 331.987 69.6895 333.209 68.599C334.822 67.1585 335.631 65.4575 335.613 63.543C335.6 62.0891 335.118 60.5766 334.148 58.961C335.34 58.8037 336.445 58.966 337.388 59.4705C338.99 60.328 340.736 62.4456 340.383 65.5913C340.074 68.3471 338.761 70.4818 335.994 72.7272C332.887 75.1724 329.76 76.0486 326.698 75.3317C323.832 74.6604 321.01 72.6367 318.312 69.3167C315.669 65.9529 314.317 62.7545 314.294 59.8104C314.27 56.6663 315.814 53.8093 318.884 51.3182C322.013 48.8553 325.185 47.9514 328.312 48.6311C329.845 48.9645 331.384 49.695 332.883 50.7827L334.603 48.4522C332.765 47.1076 330.85 46.2139 328.872 45.784C324.864 44.9125 320.889 46.0007 317.059 49.0184L317.043 49.0306C313.263 52.0948 311.362 55.7101 311.393 59.7759C311.421 63.394 312.99 67.2054 316.056 71.1043L316.064 71.1135L316.071 71.1226C319.198 74.973 322.569 77.3438 326.092 78.1687C330.051 79.0956 333.997 78.0388 337.819 75.0271L337.834 75.0149C341.195 72.2906 342.87 69.502 343.266 65.973C343.783 61.3559 341.136 58.2024 338.713 56.9049C336.974 55.9746 334.898 55.75 332.709 56.2556ZM331.258 66.4051C329.908 67.6144 327.932 68.1535 326.774 66.8524C325.915 65.8877 325.787 64.1473 328.004 62.156C328.258 61.9279 328.513 61.7117 328.77 61.5067C329.614 60.832 330.469 60.2828 331.313 59.866C333.718 63.4246 332.581 65.2231 331.258 66.4051Z" fill="white"/>
</g>
</g>
<defs>
<clipPath id="clip0_2287_59">
<rect width="513" height="213" fill="white"/>
</clipPath>
<clipPath id="clip1_2287_59">
<rect width="61.7124" height="61.7124" fill="white" transform="translate(82.1191 27.1504) rotate(-23.0375)"/>
</clipPath>
<clipPath id="clip2_2287_59">
<rect width="61.7124" height="61.7124" fill="white" transform="translate(-27.8809 184.15) rotate(-23.0375)"/>
</clipPath>
<clipPath id="clip3_2287_59">
<rect width="27.3133" height="27.3133" fill="white" transform="translate(292.965 14.5483) rotate(-41.1165)"/>
</clipPath>
<clipPath id="clip4_2287_59">
<rect width="33.5465" height="33.5465" fill="white" transform="translate(53 16.8433) rotate(-8.60402)"/>
</clipPath>
<clipPath id="clip5_2287_59">
<rect width="23.1004" height="23.1004" fill="white" transform="translate(118.873 163.039) rotate(-4.39324)"/>
</clipPath>
<clipPath id="clip6_2287_59">
<rect width="25.4373" height="25.4373" fill="white" transform="translate(356.486 -12.0513) rotate(-4.39324)"/>
</clipPath>
<clipPath id="clip7_2287_59">
<rect width="55.2861" height="55.2861" fill="white" transform="translate(329.43 213.429) rotate(-38.6307)"/>
</clipPath>
<clipPath id="clip8_2287_59">
<rect width="33.2783" height="33.2783" fill="white" transform="translate(303.914 59.522) rotate(-38.6307)"/>
</clipPath>
</defs>
</svg>
